<svg width="12" height="12" viewBox="0 0 12 12" fill="none" xmlns="http://www.w3.org/2000/svg">
<path d="M6 11.625C5.81933 11.625 5.663 11.559 5.531 11.427C5.399 11.295 5.333 11.1387 5.333 10.958V6.667H1.042C0.861333 6.667 0.705 6.601 0.573 6.469C0.441 6.337 0.375 6.18067 0.375 6C0.375 5.81933 0.441 5.663 0.573 5.531C0.705 5.399 0.861333 5.333 1.042 5.333H5.333V1.042C5.333 0.861333 5.399 0.705 5.531 0.573C5.663 0.441 5.81933 0.375 6 0.375C6.18067 0.375 6.337 0.441 6.469 0.573C6.601 0.705 6.667 0.861333 6.667 1.042V5.333H10.958C11.1387 5.333 11.295 5.399 11.427 5.531C11.559 5.663 11.625 5.81933 11.625 6C11.625 6.18067 11.559 6.337 11.427 6.469C11.295 6.601 11.1387 6.667 10.958 6.667H6.667V10.958C6.667 11.1387 6.601 11.295 6.469 11.427C6.337 11.559 6.18067 11.625 6 11.625Z" fill="white"/>
</svg>
