<svg width="16" height="16" viewBox="0 0 16 16" fill="none" xmlns="http://www.w3.org/2000/svg">
<path d="M3.66699 13C4.66699 12.3333 6.00033 12 6.66699 11.3333C7.33366 10.6667 5.33366 10.6667 5.33366 7.33333C5.33366 4 8.00033 4 8.00033 4C8.00033 4 10.667 4 10.667 7.33333C10.667 10.6667 8.66699 10.6667 9.33366 11.3333C10.0003 12 11.3337 12.3333 12.3337 13" stroke="#848484" stroke-linecap="round"/>
<path fill-rule="evenodd" clip-rule="evenodd" d="M7.99967 14.6663C11.6816 14.6663 14.6663 11.6816 14.6663 7.99967C14.6663 4.31778 11.6816 1.33301 7.99967 1.33301C4.31778 1.33301 1.33301 4.31778 1.33301 7.99967C1.33301 11.6816 4.31778 14.6663 7.99967 14.6663Z" stroke="#848484"/>
</svg>
