<svg width="12" height="15" viewBox="0 0 12 15" fill="none" xmlns="http://www.w3.org/2000/svg">
<path d="M1.91701 12.812L6.00001 11.083L10.083 12.812V2.49999C10.083 2.44466 10.0553 2.38899 10 2.33299C9.94467 2.27766 9.88901 2.24999 9.83301 2.24999H2.16701C2.11101 2.24999 2.05534 2.27766 2.00001 2.33299C1.94467 2.38899 1.91701 2.44466 1.91701 2.49999V12.812ZM1.70801 14.396C1.44401 14.5207 1.19067 14.5033 0.948008 14.344C0.704674 14.184 0.583008 13.9583 0.583008 13.667V2.49999C0.583008 2.05533 0.736007 1.68033 1.04201 1.37499C1.34734 1.06966 1.72234 0.916992 2.16701 0.916992H9.83301C10.2777 0.916992 10.6527 1.06966 10.958 1.37499C11.264 1.68033 11.417 2.05533 11.417 2.49999V13.667C11.417 13.9583 11.2953 14.184 11.052 14.344C10.8093 14.5033 10.556 14.5207 10.292 14.396L6.00001 12.521L1.70801 14.396Z" fill="#008A22"/>
</svg>
