<svg width="18" height="18" viewBox="0 0 18 18" fill="none" xmlns="http://www.w3.org/2000/svg">
<path d="M5.05 12.95C5.15 13.0667 5.26667 13.125 5.4 13.125C5.53333 13.125 5.65 13.0667 5.75 12.95L9 9.7L12.275 12.975C12.3583 13.075 12.471 13.121 12.613 13.113C12.7543 13.1043 12.8667 13.05 12.95 12.95C13.0667 12.85 13.125 12.7333 13.125 12.6C13.125 12.4667 13.0667 12.35 12.95 12.25L9.7 9L12.975 5.725C13.075 5.64167 13.121 5.529 13.113 5.387C13.1043 5.24567 13.05 5.13333 12.95 5.05C12.85 4.93333 12.7333 4.875 12.6 4.875C12.4667 4.875 12.35 4.93333 12.25 5.05L9 8.3L5.725 5.025C5.64167 4.925 5.529 4.879 5.387 4.887C5.24567 4.89567 5.13333 4.95 5.05 5.05C4.93333 5.15 4.875 5.26667 4.875 5.4C4.875 5.53333 4.93333 5.65 5.05 5.75L8.3 9L5.025 12.275C4.925 12.3583 4.87933 12.471 4.888 12.613C4.896 12.7543 4.95 12.8667 5.05 12.95ZM9 18C7.75 18 6.575 17.7667 5.475 17.3C4.375 16.8333 3.421 16.196 2.613 15.388C1.80433 14.5793 1.16667 13.625 0.7 12.525C0.233333 11.425 0 10.25 0 9C0 7.75 0.233333 6.575 0.7 5.475C1.16667 4.375 1.80433 3.42067 2.613 2.612C3.421 1.804 4.375 1.16667 5.475 0.7C6.575 0.233333 7.75 0 9 0C10.25 0 11.425 0.233333 12.525 0.7C13.625 1.16667 14.5793 1.804 15.388 2.612C16.196 3.42067 16.8333 4.375 17.3 5.475C17.7667 6.575 18 7.75 18 9C18 10.25 17.7667 11.425 17.3 12.525C16.8333 13.625 16.196 14.5793 15.388 15.388C14.5793 16.196 13.625 16.8333 12.525 17.3C11.425 17.7667 10.25 18 9 18ZM9 17C11.2167 17 13.1043 16.221 14.663 14.663C16.221 13.1043 17 11.2167 17 9C17 6.78333 16.221 4.89567 14.663 3.337C13.1043 1.779 11.2167 1 9 1C6.78333 1 4.896 1.779 3.338 3.337C1.77933 4.89567 1 6.78333 1 9C1 11.2167 1.77933 13.1043 3.338 14.663C4.896 16.221 6.78333 17 9 17Z" fill="#1C1B1F"/>
</svg>
