<svg width="27" height="20" viewBox="0 0 27 20" fill="none" xmlns="http://www.w3.org/2000/svg">
<path d="M2.64081 0.000217929C1.18679 0.000217929 0 1.1997 0 2.67378V17.3264C0 18.8005 1.18679 20 2.64081 20L24.3592 19.9998C25.8132 19.9998 27 18.8003 27 17.3262V2.67356C27 1.19948 25.8132 0 24.3592 0L2.64081 0.000217929ZM2.64081 0.976541H24.3592C25.2962 0.976541 26.037 1.72362 26.037 2.67378V4.35356H0.963366V2.67356C0.963366 1.72362 1.7038 0.976541 2.64081 0.976541ZM0.963036 5.32988H26.0366V7.21781H0.963036V5.32988ZM0.963036 8.19497H26.0366V17.3261C26.0366 18.276 25.2959 19.0233 24.3589 19.0233H2.64048C1.70347 19.0233 0.962706 18.2763 0.962706 17.3261L0.963036 8.19497ZM17.4953 11.2118C16.7674 11.2118 16.0688 11.5051 15.5542 12.027C15.0396 12.5487 14.7503 13.257 14.7501 13.9949C14.7501 14.7328 15.0394 15.4411 15.5542 15.9628C16.0689 16.4845 16.7675 16.7789 17.4953 16.7789C18.0789 16.7785 18.6415 16.5867 19.1073 16.243C19.5738 16.5874 20.1379 16.7789 20.7222 16.7789C21.4502 16.7789 22.1484 16.4856 22.6633 15.9637C23.1781 15.4417 23.4674 14.7328 23.4674 13.9949C23.4674 13.2568 23.1781 12.5489 22.6633 12.027C22.1484 11.5051 21.4502 11.2118 20.7222 11.2118C20.1379 11.2118 19.5741 11.4033 19.1073 11.7476C18.6415 11.404 18.0789 11.2122 17.4953 11.2118ZM4.02714 11.9536C3.89752 11.9508 3.77219 12.0007 3.67954 12.0926C3.5869 12.1844 3.53488 12.3103 3.53488 12.4415C3.53488 12.5729 3.5869 12.6989 3.67954 12.7907C3.77219 12.8826 3.89752 12.9327 4.02714 12.9297H10.0877C10.2173 12.9327 10.3424 12.8826 10.435 12.7907C10.5277 12.6989 10.5799 12.5729 10.5799 12.4415C10.5799 12.3103 10.5277 12.1844 10.435 12.0926C10.3424 12.0007 10.2171 11.9505 10.0874 11.9534L4.02714 11.9536ZM17.4953 12.1881C17.8298 12.1883 18.1536 12.284 18.433 12.4598C18.3636 12.5664 18.3029 12.678 18.2488 12.7926C18.2423 12.8063 18.2363 12.8199 18.2299 12.8336C18.1256 13.0635 18.0532 13.3067 18.0136 13.5582C18.0106 13.5769 18.0078 13.5957 18.005 13.6144C17.9878 13.7402 17.9758 13.8666 17.9758 13.9949C17.9758 14.1233 17.9878 14.2505 18.005 14.3763C18.0076 14.3953 18.0104 14.4138 18.0136 14.4325C18.0532 14.684 18.1256 14.9272 18.2299 15.1571C18.2361 15.1708 18.2423 15.1846 18.2488 15.1981C18.3029 15.3123 18.3629 15.4236 18.4321 15.53C18.1529 15.7054 17.8296 15.8015 17.4955 15.8017C17.0228 15.8017 16.5697 15.6115 16.2352 15.2726C15.9009 14.9337 15.7133 14.4743 15.7133 13.9951C15.7133 13.5159 15.9009 13.0574 16.2352 12.7185C16.5695 12.3796 17.0225 12.1883 17.4953 12.1881ZM20.7222 12.1881C21.1951 12.1881 21.648 12.3783 21.9823 12.7172C22.3167 13.0563 22.5042 13.5155 22.5042 13.9949C22.5042 14.4743 22.3165 14.9335 21.9823 15.2724C21.648 15.6115 21.1948 15.8026 20.7222 15.8026C20.2492 15.8026 19.7963 15.6115 19.4621 15.2724C19.4591 15.2693 19.4567 15.2659 19.4535 15.2628L19.4524 15.2608C19.1246 14.9231 18.9401 14.4685 18.9399 13.9947C18.9404 13.5209 19.1248 13.0672 19.4524 12.7294C19.4576 12.7237 19.4627 12.7183 19.4674 12.7124C19.8013 12.3768 20.2518 12.1881 20.7222 12.1881ZM3.98075 14.5945C3.71935 14.6132 3.52051 14.8401 3.5332 15.1055C3.54566 15.371 3.76493 15.5775 4.02697 15.5708H6.61792C6.74755 15.5738 6.87265 15.5235 6.9653 15.4318C7.05795 15.3398 7.11019 15.214 7.11019 15.0826C7.11019 14.9512 7.05795 14.8255 6.9653 14.7335C6.87265 14.6418 6.74755 14.5916 6.61792 14.5945H4.02697C4.01149 14.5938 3.99623 14.5938 3.98075 14.5945Z" fill="#3E0719"/>
</svg>
