<svg width="48" height="46" viewBox="0 0 48 46" fill="none" xmlns="http://www.w3.org/2000/svg">
<path fill-rule="evenodd" clip-rule="evenodd" d="M11.8898 3.95328C11.4273 1.66837 9.45765 -0.00157755 7.1457 1.11834e-06H0.946289V2.00812H7.14636L7.45516 2.02472C8.77551 2.16834 9.8475 3.22846 10.0122 4.60692L12.6227 26.4553L12.6844 26.89C13.2149 29.8969 15.7911 32.122 18.8214 32.1032L44.2032 32.1032V30.0951H18.8155L18.435 30.0802C16.4276 29.91 14.7923 28.3068 14.5674 26.2227L14.3167 24.1243H34.3487L34.884 24.1113C39.5002 23.8828 43.4931 20.6578 44.7668 16.0582L46.9859 8.02514L47.0437 7.7579C47.0851 7.3914 46.9841 6.99342 46.7479 6.67475C46.4528 6.27641 45.9847 6.05352 45.4975 6.07934L12.1605 6.07806L11.9556 4.36267L11.8898 3.95328ZM12.4004 8.08598L14.0768 22.1162H34.3496C38.1497 22.1197 41.5087 19.6419 42.7354 15.9927L42.8832 15.5102L44.9345 8.08344L12.4004 8.08598ZM14.9399 40.015C14.9399 36.8727 17.4236 34.3254 20.4873 34.3254C23.5511 34.3254 26.0348 36.8727 26.0348 40.015C26.0348 43.1574 23.5511 45.7047 20.4873 45.7047C17.4236 45.7047 14.9399 43.1574 14.9399 40.015ZM24.0775 40.0152C24.0775 37.9819 22.4704 36.3336 20.488 36.3336C18.5056 36.3336 16.8985 37.9819 16.8985 40.0152C16.8985 42.0484 18.5056 43.6967 20.488 43.6967C22.4704 43.6967 24.0775 42.0484 24.0775 40.0152ZM35.9678 34.3254C32.9041 34.3254 30.4204 36.8727 30.4204 40.015C30.4204 43.1574 32.9041 45.7047 35.9678 45.7047C39.0316 45.7047 41.5153 43.1574 41.5153 40.015C41.5153 36.8727 39.0316 34.3254 35.9678 34.3254ZM35.9672 36.3338C37.9496 36.3338 39.5567 37.9821 39.5567 40.0153C39.5567 42.0486 37.9496 43.6969 35.9672 43.6969C33.9847 43.6969 32.3777 42.0486 32.3777 40.0153C32.3777 37.9821 33.9847 36.3338 35.9672 36.3338Z" fill="#848484"/>
</svg>
