<svg width="16" height="16" viewBox="0 0 16 16" fill="none" xmlns="http://www.w3.org/2000/svg">
<path d="M8.56199 5.87499C8.40933 5.73632 8.22199 5.66699 7.99999 5.66699C7.77799 5.66699 7.59066 5.73632 7.43799 5.87499L4.95799 8.35399C4.83333 8.47932 4.77099 8.63566 4.77099 8.82299C4.77099 9.01032 4.83333 9.16666 4.95799 9.29199C5.08333 9.41666 5.24333 9.47899 5.43799 9.47899C5.63199 9.47899 5.79166 9.41666 5.91699 9.29199L7.99999 7.20799L10.104 9.31199C10.2293 9.43733 10.3857 9.49999 10.573 9.49999C10.7603 9.49999 10.9167 9.43733 11.042 9.31199C11.1667 9.18733 11.229 9.02766 11.229 8.83299C11.229 8.63899 11.1667 8.47933 11.042 8.35399L8.56199 5.87499ZM7.99999 0.0829919C9.09733 0.082992 10.1287 0.291325 11.094 0.707992C12.0593 1.12466 12.896 1.68733 13.604 2.39599C14.3127 3.10399 14.8753 3.94066 15.292 4.90599C15.7087 5.87133 15.917 6.90266 15.917 7.99999C15.917 9.09733 15.7087 10.1287 15.292 11.094C14.8753 12.0593 14.3127 12.896 13.604 13.604C12.896 14.3127 12.0593 14.8753 11.094 15.292C10.1287 15.7087 9.09733 15.917 7.99999 15.917C6.90266 15.917 5.87133 15.7087 4.90599 15.292C3.94066 14.8753 3.10399 14.3127 2.39599 13.604C1.68733 12.896 1.12466 12.0593 0.707993 11.094C0.291326 10.1287 0.0829931 9.09732 0.0829932 7.99999C0.0829933 6.90266 0.291326 5.87132 0.707994 4.90599C1.12466 3.94066 1.68733 3.10399 2.39599 2.39599C3.10399 1.68732 3.94066 1.12466 4.90599 0.707992C5.87133 0.291325 6.90266 0.0829918 7.99999 0.0829919ZM7.99999 1.41699C6.18066 1.41699 4.62866 2.05932 3.34399 3.34399C2.05933 4.62866 1.41699 6.18066 1.41699 7.99999C1.41699 9.81932 2.05933 11.3713 3.34399 12.656C4.62866 13.9407 6.18066 14.583 7.99999 14.583C9.81933 14.583 11.3713 13.9407 12.656 12.656C13.9407 11.3713 14.583 9.81933 14.583 7.99999C14.583 6.18066 13.9407 4.62866 12.656 3.34399C11.3713 2.05932 9.81933 1.41699 7.99999 1.41699Z" fill="black"/>
</svg>
