<svg width="17" height="16" viewBox="0 0 17 16" fill="none" xmlns="http://www.w3.org/2000/svg">
<path d="M7.93801 10.125C8.09067 10.2637 8.27801 10.333 8.50001 10.333C8.72201 10.333 8.90934 10.2637 9.06201 10.125L11.542 7.64601C11.6667 7.52067 11.729 7.36434 11.729 7.17701C11.729 6.98967 11.6667 6.83334 11.542 6.70801C11.4167 6.58334 11.2567 6.52101 11.062 6.52101C10.868 6.52101 10.7083 6.58334 10.583 6.70801L8.50001 8.79201L6.39601 6.68801C6.27067 6.56267 6.11434 6.50001 5.92701 6.50001C5.73967 6.50001 5.58334 6.56267 5.45801 6.68801C5.33334 6.81267 5.27101 6.97234 5.27101 7.16701C5.27101 7.36101 5.33334 7.52067 5.45801 7.64601L7.93801 10.125ZM8.50001 15.917C7.40267 15.917 6.37134 15.7087 5.40601 15.292C4.44067 14.8753 3.60401 14.3127 2.89601 13.604C2.18734 12.896 1.62467 12.0593 1.20801 11.094C0.791341 10.1287 0.583008 9.09734 0.583008 8.00001C0.583008 6.90267 0.791341 5.87134 1.20801 4.90601C1.62467 3.94067 2.18734 3.10401 2.89601 2.39601C3.60401 1.68734 4.44067 1.12467 5.40601 0.708008C6.37134 0.291341 7.40267 0.0830078 8.50001 0.0830078C9.59734 0.0830078 10.6287 0.291341 11.594 0.708008C12.5593 1.12467 13.396 1.68734 14.104 2.39601C14.8127 3.10401 15.3753 3.94067 15.792 4.90601C16.2087 5.87134 16.417 6.90267 16.417 8.00001C16.417 9.09734 16.2087 10.1287 15.792 11.094C15.3753 12.0593 14.8127 12.896 14.104 13.604C13.396 14.3127 12.5593 14.8753 11.594 15.292C10.6287 15.7087 9.59734 15.917 8.50001 15.917ZM8.50001 14.583C10.3193 14.583 11.8713 13.9407 13.156 12.656C14.4407 11.3713 15.083 9.81934 15.083 8.00001C15.083 6.18067 14.4407 4.62867 13.156 3.34401C11.8713 2.05934 10.3193 1.41701 8.50001 1.41701C6.68067 1.41701 5.12867 2.05934 3.84401 3.34401C2.55934 4.62867 1.91701 6.18067 1.91701 8.00001C1.91701 9.81934 2.55934 11.3713 3.84401 12.656C5.12867 13.9407 6.68067 14.583 8.50001 14.583Z" fill="white"/>
</svg>
