<svg width="14" height="15" viewBox="0 0 14 15" fill="none" xmlns="http://www.w3.org/2000/svg">
<path d="M3.14648 14.083C2.70181 14.083 2.32681 13.9303 2.02148 13.625C1.71548 13.3197 1.56248 12.9447 1.56248 12.5V2.125H1.35448C1.17381 2.125 1.01748 2.059 0.885477 1.927C0.754143 1.795 0.688477 1.63866 0.688477 1.458C0.688477 1.278 0.754143 1.122 0.885477 0.989996C1.01748 0.857996 1.17381 0.791996 1.35448 0.791996H4.52148C4.52148 0.58333 4.60114 0.402663 4.76048 0.249996C4.92048 0.0973295 5.10448 0.0209961 5.31248 0.0209961H8.66748C8.87548 0.0209961 9.05948 0.0973295 9.21948 0.249996C9.37881 0.402663 9.45848 0.58333 9.45848 0.791996H12.6255C12.8061 0.791996 12.9625 0.857996 13.0945 0.989996C13.2265 1.122 13.2925 1.278 13.2925 1.458C13.2925 1.63866 13.2265 1.795 13.0945 1.927C12.9625 2.059 12.8061 2.125 12.6255 2.125H12.4175V12.5C12.4175 12.9447 12.2645 13.3197 11.9585 13.625C11.6531 13.9303 11.2781 14.083 10.8335 14.083H3.14648ZM2.89648 2.125V12.5C2.89648 12.5693 2.92081 12.6283 2.96948 12.677C3.01814 12.7257 3.07714 12.75 3.14648 12.75H10.8335C10.9035 12.75 10.9625 12.7257 11.0105 12.677C11.0591 12.6283 11.0835 12.5693 11.0835 12.5V2.125H2.89648ZM4.79248 10.333C4.79248 10.5137 4.85848 10.67 4.99048 10.802C5.12248 10.934 5.27848 11 5.45848 11C5.63914 11 5.79548 10.934 5.92748 10.802C6.05948 10.67 6.12548 10.5137 6.12548 10.333V4.542C6.12548 4.36133 6.05948 4.205 5.92748 4.073C5.79548 3.941 5.63914 3.875 5.45848 3.875C5.27848 3.875 5.12248 3.941 4.99048 4.073C4.85848 4.205 4.79248 4.36133 4.79248 4.542V10.333ZM7.85448 10.333C7.85448 10.5137 7.92048 10.67 8.05248 10.802C8.18448 10.934 8.34081 11 8.52148 11C8.70214 11 8.85848 10.934 8.99048 10.802C9.12248 10.67 9.18848 10.5137 9.18848 10.333V4.542C9.18848 4.36133 9.12248 4.205 8.99048 4.073C8.85848 3.941 8.70214 3.875 8.52148 3.875C8.34081 3.875 8.18448 3.941 8.05248 4.073C7.92048 4.205 7.85448 4.36133 7.85448 4.542V10.333ZM2.89648 2.125V12.5C2.89648 12.5693 2.92081 12.6283 2.96948 12.677C3.01814 12.7257 3.07714 12.75 3.14648 12.75H2.89648V2.125Z" fill="black"/>
</svg>
