<svg width="69" height="46" viewBox="0 0 69 46" fill="none" xmlns="http://www.w3.org/2000/svg">
<path d="M56.0332 16.1959C55.7284 15.2398 55.1485 14.4083 54.3746 13.8178C53.6007 13.2272 52.6716 12.9073 51.7171 12.9026H47.2928C48.0448 11.3999 48.5112 9.75619 48.6659 8.0641C48.6659 5.92537 47.8622 3.87423 46.4316 2.36192C45.0011 0.849608 43.0608 0 41.0377 0C39.0145 0 37.0743 0.849608 35.6437 2.36192C34.2131 3.87423 33.4095 5.92537 33.4095 8.0641C33.5641 9.75619 34.0305 11.3999 34.7825 12.9026H30.3582C29.1443 12.9026 27.9801 13.4123 27.1218 14.3197C26.2635 15.2271 25.7812 16.4578 25.7812 17.741V33.8692C25.7855 34.9298 26.1193 35.9595 26.7313 36.7999C27.3432 37.6403 28.1994 38.2449 29.1682 38.5206C28.8036 39.4822 28.7407 40.5421 28.9885 41.5444C29.2364 42.5467 29.7821 43.4384 30.5452 44.0883C31.3083 44.7382 32.2486 45.1121 33.2277 45.1548C34.2068 45.1976 35.1731 44.907 35.9843 44.3258C36.7955 43.7447 37.4089 42.9036 37.7341 41.9263C38.0594 40.9491 38.0793 39.8873 37.791 38.8972C37.5028 37.9071 36.9215 37.0409 36.1327 36.4261C35.344 35.8113 34.3894 35.4804 33.4095 35.4821H30.3582C29.9535 35.4821 29.5655 35.3121 29.2794 35.0097C28.9933 34.7072 28.8325 34.297 28.8325 33.8692V17.741C28.8325 17.3133 28.9933 16.9031 29.2794 16.6006C29.5655 16.2981 29.9535 16.1282 30.3582 16.1282H36.3661C37.7789 18.7668 39.2649 21.1005 39.7821 21.8827C39.9224 22.0976 40.1099 22.2733 40.3286 22.3947C40.5473 22.516 40.7907 22.5794 41.0377 22.5794C41.2847 22.5794 41.528 22.516 41.7467 22.3947C41.9654 22.2733 42.153 22.0976 42.2933 21.8827C42.8044 21.1005 44.2964 18.7668 45.7092 16.1282H51.7171C52.1218 16.1282 52.5098 16.2981 52.7959 16.6006C53.0821 16.9031 53.2428 17.3133 53.2428 17.741V35.4821H42.5633C42.1587 35.4821 41.7706 35.652 41.4845 35.9544C41.1984 36.2569 41.0377 36.6671 41.0377 37.0949C41.0377 37.5226 41.1984 37.9328 41.4845 38.2353C41.7706 38.5378 42.1587 38.7077 42.5633 38.7077H53.5235C53.3428 39.2242 53.2478 39.7698 53.2428 40.3205C53.2428 41.6038 53.725 42.8344 54.5833 43.7418C55.4417 44.6492 56.6058 45.159 57.8197 45.159C59.0336 45.159 60.1977 44.6492 61.0561 43.7418C61.9144 42.8344 62.3966 41.6038 62.3966 40.3205C62.3916 39.7698 62.2966 39.2242 62.1159 38.7077H63.9223C65.1362 38.7077 66.3003 38.1979 67.1586 37.2905C68.017 36.3832 68.4992 35.1525 68.4992 33.8692V30.6436C68.4947 27.0273 67.2147 23.5428 64.9094 20.871C62.6041 18.1993 59.4392 16.5323 56.0332 16.1959ZM33.4095 41.9333C33.1077 41.9333 32.8127 41.8387 32.5619 41.6615C32.311 41.4843 32.1154 41.2324 31.9999 40.9377C31.8845 40.643 31.8543 40.3187 31.9131 40.0059C31.972 39.693 32.1173 39.4056 32.3307 39.1801C32.544 38.9545 32.8159 38.8009 33.1118 38.7387C33.4078 38.6765 33.7145 38.7084 33.9933 38.8305C34.2721 38.9525 34.5103 39.1592 34.678 39.4245C34.8456 39.6897 34.9351 40.0015 34.9351 40.3205C34.9351 40.7483 34.7744 41.1585 34.4882 41.4609C34.2021 41.7634 33.8141 41.9333 33.4095 41.9333ZM41.0377 18.0507C38.8423 14.4235 36.4607 9.82853 36.4607 8.0641C36.4607 6.78086 36.9429 5.55018 37.8013 4.64279C38.6596 3.73541 39.8238 3.22564 41.0377 3.22564C42.2515 3.22564 43.4157 3.73541 44.274 4.64279C45.1324 5.55018 45.6146 6.78086 45.6146 8.0641C45.6146 9.8253 43.2331 14.4218 41.0377 18.0507ZM59.3454 40.3205C59.3454 40.6395 59.2559 40.9513 59.0882 41.2165C58.9206 41.4818 58.6823 41.6885 58.4035 41.8106C58.1248 41.9326 57.818 41.9646 57.5221 41.9023C57.2261 41.8401 56.9543 41.6865 56.7409 41.4609C56.5276 41.2354 56.3823 40.948 56.3234 40.6352C56.2645 40.3223 56.2947 39.998 56.4102 39.7033C56.5257 39.4086 56.7212 39.1567 56.9721 38.9795C57.223 38.8023 57.518 38.7077 57.8197 38.7077C58.2243 38.7077 58.6124 38.8776 58.8985 39.1801C59.1846 39.4825 59.3454 39.8928 59.3454 40.3205ZM65.4479 33.8692C65.4479 34.297 65.2872 34.7072 65.0011 35.0097C64.715 35.3121 64.3269 35.4821 63.9223 35.4821H56.2941V19.4684C58.8345 19.8597 61.1571 21.204 62.8377 23.2557C64.5183 25.3074 65.4447 27.9296 65.4479 30.6436V33.8692Z" fill="#3FA46C"/>
<path d="M41.0374 9.67681C41.8799 9.67681 42.563 8.95473 42.563 8.06399C42.563 7.17326 41.8799 6.45117 41.0374 6.45117C40.1948 6.45117 39.5117 7.17326 39.5117 8.06399C39.5117 8.95473 40.1948 9.67681 41.0374 9.67681Z" fill="#3FA46C"/>
<line x1="2" y1="21.1667" x2="19.0513" y2="21.1667" stroke="#3FA46C" stroke-width="3" stroke-linecap="round"/>
<line x1="7.23047" y1="27.2692" x2="19.051" y2="27.2692" stroke="#3FA46C" stroke-width="3" stroke-linecap="round"/>
</svg>
