<svg width="24" height="24" viewBox="0 0 24 24" fill="none" xmlns="http://www.w3.org/2000/svg">
<mask id="mask0_3657_4583" style="mask-type:alpha" maskUnits="userSpaceOnUse" x="0" y="0" width="24" height="24">
<rect width="24" height="24" fill="#D9D9D9"/>
</mask>
<g mask="url(#mask0_3657_4583)">
<path d="M12 16.725C12.2333 16.725 12.425 16.65 12.575 16.5C12.725 16.35 12.8 16.1583 12.8 15.925C12.8 15.6917 12.725 15.5 12.575 15.35C12.425 15.2 12.2333 15.125 12 15.125C11.7667 15.125 11.575 15.2 11.425 15.35C11.275 15.5 11.2 15.6917 11.2 15.925C11.2 16.1583 11.275 16.35 11.425 16.5C11.575 16.65 11.7667 16.725 12 16.725ZM11.25 13.075H12.75V7.075H11.25V13.075ZM12 21.5C10.6833 21.5 9.446 21.25 8.288 20.75C7.12933 20.25 6.125 19.575 5.275 18.725C4.425 17.875 3.75 16.8707 3.25 15.712C2.75 14.554 2.5 13.3167 2.5 12C2.5 10.6833 2.75 9.44567 3.25 8.287C3.75 7.129 4.425 6.125 5.275 5.275C6.125 4.425 7.12933 3.75 8.288 3.25C9.446 2.75 10.6833 2.5 12 2.5C13.3167 2.5 14.5543 2.75 15.713 3.25C16.871 3.75 17.875 4.425 18.725 5.275C19.575 6.125 20.25 7.129 20.75 8.287C21.25 9.44567 21.5 10.6833 21.5 12C21.5 13.3167 21.25 14.554 20.75 15.712C20.25 16.8707 19.575 17.875 18.725 18.725C17.875 19.575 16.871 20.25 15.713 20.75C14.5543 21.25 13.3167 21.5 12 21.5Z" fill="#9B001C"/>
</g>
</svg>
