<svg width="24" height="24" viewBox="0 0 24 24" fill="none" xmlns="http://www.w3.org/2000/svg">
<mask id="mask0_2326_77201" style="mask-type:alpha" maskUnits="userSpaceOnUse" x="0" y="0" width="24" height="24">
<rect width="24" height="24" fill="#D9D9D9"/>
</mask>
<g mask="url(#mask0_2326_77201)">
<path d="M11.7749 19C11.5582 19 11.3749 18.925 11.2249 18.775C11.0749 18.625 10.9999 18.4417 10.9999 18.225V12.65L5.59988 5.825C5.46655 5.64167 5.44988 5.45833 5.54988 5.275C5.64988 5.09167 5.80821 5 6.02488 5H17.9749C18.1915 5 18.3499 5.09167 18.4499 5.275C18.5499 5.45833 18.5332 5.64167 18.3999 5.825L12.9999 12.65V18.225C12.9999 18.4417 12.9249 18.625 12.7749 18.775C12.6249 18.925 12.4415 19 12.2249 19H11.7749ZM11.9999 12.3L16.9499 6H7.04988L11.9999 12.3Z" fill="#1C1B1F"/>
</g>
</svg>
