<svg width="17" height="14" viewBox="0 0 17 14" fill="none" xmlns="http://www.w3.org/2000/svg">
<path d="M16.8294 12.695L1.62719 0.693323C1.45217 0.543301 1.20213 0.593308 1.07711 0.768333C0.92709 0.918355 0.977097 1.19339 1.15212 1.31841L16.3543 13.3201C16.4293 13.3701 16.5043 13.3951 16.5793 13.3951C16.6793 13.3951 16.8044 13.3451 16.8794 13.2451C17.0544 13.0701 17.0044 12.8201 16.8294 12.695ZM9.10326 9.74462C8.6532 9.29455 8.05311 9.04452 7.40302 9.04452C7.25299 9.04452 7.07797 9.04452 6.92795 9.09452C6.95295 8.9195 6.97796 8.76948 6.97796 8.59445C6.97796 7.96936 6.72792 7.36928 6.27786 6.89421L5.70277 6.31913C5.55275 6.16911 5.32772 6.0941 5.12769 6.0941C4.92766 6.0941 4.72763 6.16911 4.57761 6.31913L4.00253 6.89421C3.55247 7.34427 3.30243 7.94436 3.30243 8.59445C3.30243 9.21954 3.55247 9.81963 4.00253 10.2697L4.57761 10.8448L2.70234 12.72C2.62733 12.7951 2.60233 12.8951 2.60233 12.9951C2.60233 13.2451 2.77735 13.3951 3.00239 13.3951C3.1024 13.3951 3.20242 13.3701 3.27743 13.2951L5.15269 11.4199L5.72778 11.9949C6.17784 12.445 6.77793 12.695 7.40302 12.695C8.05311 12.695 8.6532 12.445 9.10326 11.9949L9.67834 11.4449C9.82836 11.2948 9.90337 11.0948 9.90337 10.8698C9.90337 10.6697 9.82836 10.4447 9.67834 10.2947L9.10326 9.74462ZM5.15269 10.2947L4.57761 9.71961C4.25257 9.39457 4.10254 8.99451 4.10254 8.59445C4.10254 8.16939 4.25257 7.76933 4.57761 7.44429L5.12769 6.89421L5.70277 7.46929C6.02782 7.76933 6.17784 8.1944 6.17784 8.59445C6.17784 8.96951 6.05282 9.34456 5.77778 9.66961L5.15269 10.2947ZM8.55318 11.4199C8.22813 11.7449 7.82808 11.8949 7.40302 11.8949C7.00296 11.8949 6.6029 11.7449 6.27786 11.4199L5.70277 10.8698L6.27786 10.2947C6.5779 9.99465 7.00296 9.84463 7.40302 9.84463C7.82808 9.84463 8.22813 9.99465 8.52818 10.2947L9.10326 10.8698L8.55318 11.4199ZM9.4033 2.59359L9.95338 2.04352L10.5285 2.6186C11.1285 3.21868 11.1536 4.21883 10.5535 4.86892C10.5285 4.86892 10.5285 4.86892 10.5285 4.86892L10.0784 5.31898L10.7035 5.81906L11.1035 5.444C11.7286 4.81891 12.7288 4.81891 13.3539 5.444L13.929 6.01908L13.3539 6.59417C13.0538 6.89421 12.6538 7.04423 12.2287 7.04423L13.0538 7.69432C13.3789 7.56931 13.6789 7.39428 13.929 7.14425L14.8041 6.29412C14.9541 6.1441 14.9541 5.89407 14.8041 5.74404L13.954 4.89392C13.8289 4.76891 13.7039 4.69389 13.5789 4.59388C13.954 4.46886 14.304 4.29384 14.579 4.0438C15.2291 3.3187 15.4292 2.16853 15.3792 1.04337C15.3792 0.81834 15.1791 0.618312 14.9541 0.618312C14.8541 0.618312 14.7291 0.618312 14.6291 0.618312C13.7539 0.618312 12.7038 0.768333 11.9787 1.44343C11.7036 1.71847 11.5036 2.04352 11.3786 2.39357C11.3036 2.26855 11.2286 2.16853 11.1285 2.06852L10.2534 1.19339C10.1034 1.04337 9.85337 1.04337 9.70335 1.19339L8.85322 2.04352C8.40316 2.46858 8.17813 3.04366 8.15312 3.61874L9.20327 4.59388C8.80322 3.99379 8.87823 3.14367 9.4033 2.59359ZM12.5287 2.01851C13.0538 1.51844 13.929 1.41843 14.604 1.39342C14.579 2.29355 14.379 3.04366 14.004 3.46872C13.4539 3.96879 12.5788 4.06881 11.9287 4.06881C11.9287 3.41871 12.0287 2.51858 12.5287 2.01851Z" fill="black"/>
</svg>
