<svg width="16" height="14" viewBox="0 0 16 14" fill="none" xmlns="http://www.w3.org/2000/svg">
<path d="M15.2379 0.721016C15.2086 0.662422 15.15 0.603829 15.1207 0.574532C15.0035 0.457344 14.8571 0.428047 14.7106 0.457344C14.5934 0.486641 14.4469 0.545235 14.3883 0.691719C13.6266 2.01008 12.2789 2.80109 10.6969 2.80109H8.67542C5.98011 2.7718 3.81214 4.99836 3.81214 7.75227C3.81214 7.89875 3.81214 8.07453 3.84143 8.25031C2.43518 9.45148 1.40979 11.0921 0.999638 12.9964C0.941044 13.2601 1.11683 13.4945 1.3512 13.5238C1.3805 13.553 1.40979 13.553 1.46839 13.553C1.67347 13.553 1.87854 13.4066 1.90784 13.2015C2.23011 11.678 3.02112 10.3304 4.04651 9.305C4.1344 9.53938 4.25159 9.80305 4.36878 10.0374C5.24768 11.6488 6.88831 12.6155 8.67542 12.6155C8.8512 12.6155 9.02698 12.6155 9.17347 12.6155C13.1285 12.3226 15.9996 8.86555 15.9996 4.38313C15.9996 3.12336 15.7067 1.805 15.2379 0.721016ZM9.08558 11.678C8.93909 11.678 8.79261 11.678 8.64612 11.678C7.21058 11.678 5.86292 10.887 5.18909 9.59797C4.98401 9.2757 4.86683 8.92414 4.80823 8.63117C6.15589 7.60578 7.79651 6.99055 9.55433 6.99055H10.8141C11.0485 6.99055 11.2828 6.78547 11.2828 6.55109C11.2828 6.31672 11.0485 6.08234 10.8141 6.08234H9.55433C7.79651 6.08234 6.12659 6.63898 4.72034 7.54719C4.83753 5.46711 6.59534 3.73859 8.67542 3.73859H10.6676C12.2496 3.73859 13.6852 3.09406 14.652 1.92219C14.9157 2.68391 15.0621 3.56281 15.0621 4.38313C15.0621 8.3675 12.5426 11.4144 9.08558 11.678Z" fill="black"/>
</svg>
