<svg width="36" height="28" viewBox="0 0 36 28" fill="none" xmlns="http://www.w3.org/2000/svg">
<path fill-rule="evenodd" clip-rule="evenodd" d="M34.1418 23.699V26.3637V27.8413H33.5025V27.4819C33.2819 27.7686 32.9358 27.9302 32.5745 27.9151C31.7519 27.8682 31.109 27.1872 31.109 26.3628C31.109 25.5385 31.7519 24.8574 32.5745 24.8105C32.9359 24.7952 33.2821 24.9568 33.5025 25.2437V23.699H34.1418ZM10.1709 24.8864V26.364L10.1743 27.8449H9.53324V27.4856C9.31354 27.7725 8.96782 27.9342 8.60691 27.9188C7.78438 27.8719 7.14139 27.1908 7.14139 26.3665C7.14139 25.5421 7.78438 24.8611 8.60691 24.8142C8.96635 24.7995 9.31052 24.9604 9.52988 25.2457V24.8864H10.1709ZM7.7882 26.3637C7.81743 25.8794 8.22838 25.5074 8.71294 25.5266C9.1975 25.5458 9.57775 25.9492 9.56859 26.4343C9.55943 26.9194 9.16423 27.3082 8.67929 27.3091C8.43303 27.3115 8.19692 27.211 8.0278 27.0319C7.85867 26.8528 7.77183 26.6113 7.7882 26.3654V26.3637ZM35.3232 27.435C35.286 27.4192 35.2461 27.4112 35.2057 27.4115V27.4131C35.166 27.4126 35.1267 27.42 35.0899 27.435C35.0187 27.4649 34.9621 27.5216 34.9322 27.5928C34.9013 27.6652 34.9013 27.7471 34.9322 27.8195C34.9621 27.8907 35.0187 27.9474 35.0899 27.9773C35.1647 28.0078 35.2484 28.0078 35.3232 27.9773C35.3944 27.9474 35.451 27.8907 35.4809 27.8195C35.5116 27.747 35.5116 27.6652 35.4809 27.5928C35.4508 27.5217 35.3943 27.4651 35.3232 27.435ZM35.2065 27.9336C35.237 27.9342 35.2673 27.9285 35.2955 27.9168C35.3227 27.9051 35.3473 27.888 35.3676 27.8664C35.4555 27.7769 35.4555 27.6335 35.3676 27.544C35.3473 27.5224 35.3227 27.5053 35.2955 27.4936C35.2673 27.4819 35.237 27.4762 35.2065 27.4769C35.176 27.4764 35.1458 27.4821 35.1176 27.4936C35.0895 27.5046 35.0642 27.5218 35.0437 27.544C35.0222 27.564 35.0055 27.5887 34.9951 27.6162C34.9722 27.6728 34.9722 27.736 34.9951 27.7925C35.0056 27.82 35.0222 27.8447 35.0437 27.8647C35.0642 27.8869 35.0895 27.9042 35.1176 27.9151C35.1456 27.9278 35.1758 27.9346 35.2065 27.9352V27.9336ZM35.2249 27.5694C35.2531 27.5673 35.2812 27.5757 35.3037 27.5929C35.3229 27.6084 35.3335 27.6321 35.3323 27.6567C35.3326 27.6777 35.3241 27.6978 35.3088 27.7121C35.2911 27.728 35.2687 27.7375 35.245 27.739L35.3323 27.8414H35.2635L35.1812 27.739H35.1544V27.8414H35.0973V27.5711L35.2249 27.5694ZM31.7614 26.3638C31.7906 25.8796 32.2012 25.5077 32.6856 25.5266C33.1699 25.5455 33.5503 25.9483 33.5418 26.4332C33.5333 26.9182 33.1389 27.3073 32.6542 27.3091C32.4082 27.3111 32.1725 27.2104 32.0038 27.0314C31.835 26.8523 31.7484 26.611 31.7648 26.3654L31.7614 26.3638ZM18.1008 25.3865C18.2944 25.3825 18.4817 25.4556 18.6214 25.5897C18.7612 25.7239 18.8419 25.9081 18.8459 26.1018H17.3205C17.3448 25.6919 17.6906 25.3757 18.1008 25.3882V25.3865ZM16.6306 26.3833C16.6192 25.5437 17.2768 24.8471 18.1152 24.8106V24.8139C18.5112 24.8177 18.8874 24.9877 19.1523 25.2823C19.4171 25.577 19.5461 25.9693 19.508 26.3637C19.508 26.4074 19.505 26.4497 19.502 26.4911V26.4912V26.4912V26.4912V26.4912V26.4913V26.4913V26.4913V26.4913C19.4991 26.5312 19.4963 26.5702 19.4963 26.6089H17.3147C17.3641 27.0483 17.7536 27.3689 18.1941 27.3326C18.5057 27.3277 18.8069 27.219 19.0499 27.0236L19.362 27.5005C19.0254 27.7828 18.5962 27.9306 18.1571 27.9152C17.3181 27.9014 16.6419 27.2228 16.6306 26.3833ZM25.8334 26.3638C25.8635 25.8807 26.2741 25.5103 26.7575 25.5301C27.2408 25.5498 27.6198 25.9526 27.6103 26.4365C27.6009 26.9205 27.2066 27.3082 26.7228 27.3091C26.4758 27.313 26.2385 27.2131 26.0685 27.0338C25.8985 26.8545 25.8114 26.6121 25.8284 26.3655L25.8334 26.3638ZM28.2133 24.886V26.3636L28.2083 27.8429H27.5689V27.4836C27.3483 27.7703 27.0022 27.9319 26.6409 27.9168C25.8184 27.8699 25.1754 27.1888 25.1754 26.3645C25.1754 25.5401 25.8184 24.8591 26.6409 24.8121C27.0023 24.7968 27.3485 24.9584 27.5689 25.2454V24.886H28.2133ZM22.2265 26.3639C22.2083 26.7836 22.3682 27.1915 22.6667 27.487C22.9652 27.7825 23.3745 27.938 23.7938 27.9154C24.1779 27.9345 24.5552 27.8086 24.851 27.5628L24.5439 27.0439C24.3229 27.2128 24.0534 27.3059 23.7754 27.3092C23.2754 27.2794 22.8852 26.865 22.8852 26.3639C22.8852 25.8628 23.2754 25.4484 23.7754 25.4186C24.0534 25.422 24.3229 25.515 24.5439 25.6839L24.851 25.1651C24.5552 24.9192 24.1779 24.7934 23.7938 24.8125C23.3734 24.7883 22.9624 24.9434 22.6627 25.2395C22.363 25.5355 22.2027 25.9447 22.2214 26.3656L22.2265 26.3639ZM29.6878 25.2437C29.8477 24.9684 30.1449 24.8023 30.4631 24.8105L30.458 24.8138C30.615 24.8113 30.7712 24.8363 30.9195 24.8877L30.7232 25.4939C30.5957 25.4425 30.4595 25.4168 30.3221 25.4183C29.9026 25.4183 29.6962 25.692 29.6962 26.1789V27.8362H29.0551V24.8844H29.6878V25.2437ZM13.3352 25.1196C12.9715 24.9035 12.553 24.7974 12.1303 24.814C11.3853 24.814 10.907 25.1733 10.907 25.761C10.907 26.2429 11.2644 26.5401 11.9139 26.6324L12.2143 26.6761C12.565 26.7248 12.7311 26.8188 12.7311 26.985C12.7311 27.2134 12.4979 27.3427 12.0599 27.3427C11.7083 27.3526 11.3637 27.2437 11.0815 27.0337L10.7811 27.5375C11.1535 27.799 11.6 27.9338 12.0548 27.922C12.9023 27.922 13.3973 27.519 13.3973 26.9565C13.3973 26.4377 13.0114 26.1656 12.3703 26.0733L12.0683 26.0296C11.7914 25.9927 11.5648 25.9373 11.5648 25.7392C11.5648 25.541 11.7746 25.3933 12.1236 25.3933C12.4457 25.3981 12.7611 25.4854 13.0399 25.6468L13.3352 25.1196ZM20.8049 25.2437C20.9643 24.9679 21.2619 24.8016 21.5802 24.8105L21.5751 24.8139C21.732 24.8117 21.8882 24.8367 22.0366 24.8878L21.8386 25.4939C21.7118 25.4424 21.576 25.4167 21.4392 25.4184C21.0213 25.4184 20.8116 25.6921 20.8116 26.179V27.8362H20.1722V24.8844H20.8049V25.2437ZM16.1254 24.8861H15.08V23.9895H14.4356V24.8861H13.8399V25.4738H14.4356V26.8171C14.4356 27.5022 14.7007 27.9119 15.4559 27.9119C15.7384 27.9131 16.0154 27.8339 16.2547 27.6835L16.0701 27.1328C15.8989 27.236 15.7043 27.2938 15.5045 27.3007C15.1857 27.3007 15.08 27.1025 15.08 26.8053V25.4721H16.1254V24.8861ZM6.5728 25.9926V27.8396L5.92002 27.8362V26.1924C5.92002 25.692 5.71025 25.4133 5.27562 25.4133C5.0702 25.404 4.87124 25.4863 4.7323 25.638C4.59335 25.7897 4.52869 25.9951 4.55571 26.1991V27.8362H3.90964V26.1924C3.90964 25.692 3.69484 25.4133 3.27028 25.4133C3.06432 25.4022 2.86422 25.4839 2.72485 25.6361C2.58548 25.7882 2.52147 25.9948 2.55037 26.1991V27.8362H1.9043V24.8894H2.54534V25.2538C2.73355 24.9651 3.06044 24.7977 3.40453 24.8139C3.8034 24.7951 4.17992 24.9987 4.38287 25.3428C4.60594 24.9921 5.00203 24.7908 5.41659 24.8172C5.7316 24.7995 6.03899 24.9183 6.26032 25.1433C6.48165 25.3683 6.59549 25.6777 6.5728 25.9926Z" fill="#231F20"/>
<path fill-rule="evenodd" clip-rule="evenodd" d="M35.7258 17.7478V18.4345H35.6335V17.9157L35.4891 18.3623H35.3918L35.2475 17.9157V18.4345H35.1535V17.7478H35.2878L35.4405 18.2196L35.5932 17.7478H35.7258ZM34.8867 17.8655V18.4347H34.7894V17.8655H34.6216V17.7496H35.0545V17.8655H34.8867Z" fill="#F69310"/>
<path fill-rule="evenodd" clip-rule="evenodd" d="M22.8294 19.8721H13.145V2.37769H22.8294V19.8721Z" fill="#FF5F00"/>
<path fill-rule="evenodd" clip-rule="evenodd" d="M13.7658 11.1258C13.7601 7.71641 15.3175 4.49278 17.9913 2.37943C13.4326 -1.20653 6.88507 -0.68505 2.95074 3.57736C-0.983582 7.83976 -0.983582 14.4118 2.95074 18.6742C6.88507 22.9366 13.4326 23.4581 17.9913 19.8721C15.3177 17.7593 13.7604 14.5363 13.7658 11.1274" fill="#EA001B"/>
<path fill-rule="evenodd" clip-rule="evenodd" d="M35.8895 11.1259C35.8966 14.0698 34.7346 16.8959 32.6591 18.9824C30.5835 21.0689 27.7645 22.2448 24.8224 22.2515C22.3391 22.2552 19.9279 21.4164 17.9824 19.8722C20.6534 17.7563 22.2109 14.5346 22.2109 11.1259C22.2109 7.71716 20.6534 4.49549 17.9824 2.37955C21.3173 -0.253989 25.8652 -0.742836 29.683 1.12189C33.5008 2.98661 35.9133 6.87511 35.8895 11.1259Z" fill="#F69D1B"/>
</svg>
