<?xml version="1.0" encoding="utf-8"?>
<!-- Generator: Adobe Illustrator 23.1.1, SVG Export Plug-In . SVG Version: 6.00 Build 0)  -->
<svg version="1.1" id="Layer_1" xmlns="http://www.w3.org/2000/svg" xmlns:xlink="http://www.w3.org/1999/xlink" x="0px" y="0px"
	 viewBox="0 0 1112.1 1325.6" style="enable-background:new 0 0 1112.1 1325.6;" xml:space="preserve">
<style type="text/css">
	.st0{fill:#FFFFFF;}
</style>
<g>
	<path class="st0" d="M250.1,443.7l-93.8-184.2V620H30.9V8.8h130.6l135,278L429,8.8h130.6V620H433.4V256.1l-93,187.7H250.1z"/>
	<path class="st0" d="M928.6,620H794.5V408.6L655.1,184.2c-9.7-13.1-14-30.7-14-52.6V8.8h134.2v106.1c0,16.7,2.6,29.8,7.9,38.6
		l82.4,134.2l78-125.4c6.1-9.7,8.8-22.8,8.8-38.6V8.8h128.9v122.8c0,19.3-5.2,36.8-14.9,52.6L928.6,404.3V620z"/>
	<path class="st0" d="M250.1,1137l-93.8-184.2v360.4H30.9V702.1h130.7l135,278l132.4-278h130.6v611.2H433.4V949.4l-93,187.7H250.1z"
		/>
	<path class="st0" d="M942.7,1102.8h132.4v85.1c0,83.3-45.6,128.9-128.9,128.9H776.1c-83.3,0-128.9-45.6-128.9-128.9V827.5
		c0-83.3,45.6-128.9,128.9-128.9h170.1c83.3,0,128.9,45.6,128.9,128.9V895H942.7v-59.6c0-14.9-7-21.9-21.9-21.9H803.2
		c-14.9,0-21.9,7-21.9,21.9V1180c0,14.9,7,21.9,21.9,21.9h117.5c14.9,0,21.9-7,21.9-21.9V1102.8z"/>
</g>
</svg>
