<svg width="66" height="42" viewBox="0 0 66 42" fill="none" xmlns="http://www.w3.org/2000/svg">
<g clip-path="url(#clip0_2596_33747)">
<path d="M61.3727 18.2423L59.6669 11.5625C59.8996 11.5159 60.1086 11.3916 60.2583 11.2107C60.4081 11.0298 60.4893 10.8036 60.4882 10.5706V9.50119C60.4882 8.37083 60.0306 7.28671 59.216 6.48745C58.4016 5.68815 57.2969 5.23911 56.145 5.23911H48.3589V3.00733C48.361 2.7333 48.3078 2.46158 48.2024 2.20782C48.097 1.95406 47.9414 1.72328 47.7447 1.52879C47.548 1.3343 47.3139 1.17993 47.0562 1.07459C46.7984 0.969258 46.5219 0.915031 46.2426 0.915039H6.53842C5.97294 0.915039 5.43064 1.13548 5.03079 1.52786C4.63095 1.92024 4.40631 2.45243 4.40631 3.00733V21.342C4.41039 21.6121 4.52152 21.8699 4.71612 22.0609C4.91073 22.2519 5.17349 22.3609 5.44867 22.3649C5.58482 22.365 5.71961 22.3383 5.8452 22.2868C5.97079 22.2352 6.08466 22.1596 6.1802 22.0644C6.27575 21.9692 6.35102 21.8563 6.4017 21.7323C6.45232 21.6083 6.47732 21.4756 6.47521 21.342V3.00733V2.92984H46.2426V3.00733V21.342C46.2426 21.6133 46.3525 21.8735 46.5479 22.0653C46.7434 22.2572 47.0085 22.3649 47.285 22.3649C47.4211 22.365 47.556 22.3383 47.6815 22.2868C47.8071 22.2352 47.921 22.1596 48.0165 22.0644C48.1121 21.9692 48.1873 21.8563 48.238 21.7323C48.2886 21.6083 48.3136 21.4756 48.3116 21.342V20.1951H60.5198C61.2262 20.2078 61.911 20.4373 62.4772 20.8515C63.0439 21.2658 63.4641 21.8438 63.6785 22.5044H60.5198C60.2475 22.5044 59.9864 22.6106 59.7939 22.7994C59.6013 22.9884 59.4932 23.2446 59.4932 23.5118V25.6816C59.4929 26.511 59.8232 27.3076 60.4134 27.9013C61.0034 28.4949 61.8069 28.8386 62.6516 28.8588H63.8208V33.3069H61.2304C60.7878 32.0432 59.9538 30.9466 58.8454 30.1704C57.7369 29.3942 56.4091 28.977 55.0474 28.977C53.6856 28.977 52.3579 29.3942 51.2494 30.1704C50.1409 30.9466 49.3071 32.0432 48.8643 33.3069H48.3589V25.7281C48.361 25.5945 48.336 25.4618 48.2854 25.3378C48.2347 25.2138 48.1594 25.1009 48.0639 25.0057C47.9684 24.9105 47.8545 24.8349 47.7289 24.7833C47.6033 24.7317 47.4685 24.7052 47.3324 24.7052C47.0559 24.7052 46.7908 24.813 46.5953 25.0048C46.3998 25.1966 46.29 25.4568 46.29 25.7281V33.3533H24.8586C24.4158 32.0896 23.5819 30.9932 22.4735 30.2169C21.365 29.4407 20.0372 29.0234 18.6755 29.0234C17.3138 29.0234 15.986 29.4407 14.8776 30.2169C13.7691 30.9932 12.9353 32.0896 12.4925 33.3533H6.53842V31.0596H11.0237C11.2959 31.0596 11.5571 30.9535 11.7496 30.7645C11.9421 30.5756 12.0503 30.3193 12.0503 30.0522C12.0503 29.7835 11.9426 29.5257 11.7505 29.3343C11.5585 29.1429 11.2974 29.0334 11.0237 29.0293H1.04235C0.765903 29.0293 0.500778 29.137 0.305299 29.3288C0.10982 29.5207 7.19102e-09 29.7809 7.19102e-09 30.0522C-1.61061e-05 30.1857 0.0270474 30.3181 0.079622 30.4413C0.132196 30.5646 0.209228 30.6763 0.306233 30.77C0.403237 30.8638 0.518279 30.9377 0.644656 30.9874C0.771031 31.0371 0.906222 31.0616 1.04235 31.0596H4.40631V33.2913C4.40631 33.8463 4.63095 34.3784 5.03079 34.7708C5.43064 35.1632 5.97294 35.3837 6.53842 35.3837H12.1292C12.2118 37.0329 12.9375 38.5877 14.1562 39.7263C15.3748 40.8648 16.9929 41.4998 18.6755 41.4998C20.3581 41.4998 21.9762 40.8648 23.1949 39.7263C24.4135 38.5877 25.1392 37.0329 25.2218 35.3837H48.5011C48.5836 37.0329 49.3094 38.5877 50.528 39.7263C51.7466 40.8648 53.3647 41.4998 55.0474 41.4998C56.73 41.4998 58.3481 40.8648 59.5668 39.7263C60.7854 38.5877 61.5114 37.0329 61.5937 35.3837H64.9737C65.2455 35.3837 65.5065 35.2775 65.6991 35.0886C65.8916 34.8997 66 34.6434 66 34.3762V23.5273C66 22.249 65.5332 21.0131 64.6842 20.0435C63.8353 19.074 62.66 18.435 61.3727 18.2423ZM48.3589 7.2384H56.145C56.4442 7.23638 56.7409 7.29265 57.0178 7.40413C57.2947 7.51554 57.5462 7.67984 57.7578 7.88751C57.9694 8.09512 58.1369 8.34202 58.2504 8.61369C58.3639 8.88541 58.4213 9.17651 58.4193 9.47017H48.3589V7.2384ZM48.3589 18.1804V11.5935H57.5506L59.2405 18.2423L48.3589 18.1804ZM18.6676 39.8782C17.7799 39.8782 16.912 39.6197 16.1741 39.1353C15.4362 38.651 14.8613 37.9626 14.5222 37.1574C14.1833 36.3523 14.0954 35.4664 14.2697 34.6122C14.4441 33.758 14.8728 32.9737 15.5016 32.3587C16.1305 31.7438 16.9312 31.3258 17.8023 31.1577C18.6734 30.9897 19.5757 31.0791 20.395 31.4146C21.2143 31.7501 21.9138 32.3167 22.4047 33.0426C22.8956 33.7684 23.156 34.6209 23.1529 35.4922C23.1446 36.6527 22.6678 37.7627 21.8271 38.579C20.9864 39.3953 19.8503 39.8513 18.6676 39.8472V39.8782ZM54.9921 39.8782C54.1043 39.8782 53.2365 39.6197 52.4986 39.1353C51.7607 38.651 51.1858 37.9626 50.8468 37.1574C50.5077 36.3523 50.4198 35.4664 50.5942 34.6122C50.7685 33.758 51.1973 32.9737 51.8262 32.3587C52.455 31.7438 53.2557 31.3258 54.1268 31.1577C54.9979 30.9897 55.9002 31.0791 56.7195 31.4146C57.5388 31.7501 58.2382 32.3167 58.7292 33.0426C59.2201 33.7684 59.4805 34.6209 59.4774 35.4922C59.4691 36.6447 58.9989 37.7477 58.1684 38.5626C57.338 39.3776 56.214 39.8391 55.0395 39.8472L54.9921 39.8782ZM63.8838 26.906H62.7151C62.5613 26.906 62.4094 26.8763 62.2677 26.8187C62.126 26.7611 61.997 26.6766 61.8886 26.5701C61.7802 26.4635 61.6943 26.3372 61.6355 26.198C61.5768 26.0588 61.5465 25.9097 61.5465 25.7591V24.5967H63.931V26.906H63.8838Z" fill="#3E0719"/>
<path d="M21.9528 14.089L20.6579 11.5937V16.4758H18.9521V8.18408H20.7368L22.553 11.9502L24.3692 8.18408H26.1854V16.4758H24.464V11.5472L23.1847 14.089H21.9528Z" fill="#3E0719"/>
<path d="M31.2384 16.4758H29.4064V13.5931L27.4954 10.4933C27.361 10.2797 27.2949 10.0313 27.3059 9.78041V8.18408H29.1379V9.62544C29.1246 9.80768 29.1628 9.99004 29.2484 10.1524L30.4487 12.0432L31.5227 10.3538C31.6108 10.192 31.6544 10.0104 31.649 9.82687V8.27707H33.402V9.95089C33.4051 10.2009 33.3397 10.4472 33.2125 10.6638L31.2384 13.5931V16.5222V16.4758Z" fill="#3E0719"/>
<path d="M21.9528 23.4808L20.6579 20.9856V25.8676H18.9521V17.5914H20.7368L22.553 21.342L24.3692 17.5759H26.1854V25.8521H24.464V20.9391L23.1847 23.4808H21.9528Z" fill="#3E0719"/>
<path d="M31.4272 23.0157H33.2435V24.1782C33.2882 24.4191 33.2741 24.6671 33.2024 24.9017C33.1306 25.1363 33.0032 25.3508 32.8306 25.5278C32.658 25.7047 32.4451 25.839 32.2094 25.9196C31.9737 26.0002 31.7219 26.0248 31.4746 25.9914H29.153C28.9133 26.0219 28.6698 25.9979 28.441 25.9214C28.2123 25.845 28.0045 25.718 27.8337 25.5503C27.6628 25.3827 27.5335 25.1788 27.4555 24.9543C27.3776 24.7298 27.3531 24.4908 27.3841 24.2557V19.2806C27.3531 19.0454 27.3776 18.8065 27.4555 18.582C27.5335 18.3575 27.6628 18.1536 27.8337 17.9859C28.0045 17.8182 28.2123 17.6913 28.441 17.6148C28.6698 17.5383 28.9133 17.5144 29.153 17.5448H31.4746C31.7143 17.5144 31.9578 17.5383 32.1865 17.6148C32.4153 17.6913 32.6231 17.8182 32.7939 17.9859C32.9648 18.1536 33.0942 18.3575 33.1721 18.582C33.25 18.8065 33.2744 19.0454 33.2435 19.2806V20.1951H31.4272V19.3891C31.4324 19.3493 31.4281 19.3087 31.4149 19.2707C31.4016 19.2327 31.3797 19.1982 31.3507 19.1698C31.3217 19.1413 31.2865 19.1198 31.2478 19.1068C31.209 19.0938 31.1678 19.0896 31.1272 19.0946H29.5478C29.5072 19.0896 29.4659 19.0938 29.4272 19.1068C29.3884 19.1198 29.3532 19.1413 29.3243 19.1698C29.2953 19.1982 29.2734 19.2327 29.2601 19.2707C29.2468 19.3087 29.2426 19.3493 29.2478 19.3891V24.0387C29.2426 24.0785 29.2468 24.1191 29.2601 24.1571C29.2734 24.1951 29.2953 24.2296 29.3243 24.258C29.3532 24.2864 29.3884 24.308 29.4272 24.321C29.4659 24.334 29.5072 24.3382 29.5478 24.3331H31.1272C31.1678 24.3382 31.209 24.334 31.2478 24.321C31.2865 24.308 31.3217 24.2864 31.3507 24.258C31.3797 24.2296 31.4016 24.1951 31.4149 24.1571C31.4281 24.1191 31.4324 24.0785 31.4272 24.0387V22.9848V23.0157Z" fill="#3E0719"/>
<path d="M34.0149 25.8889C34.0638 25.8703 34.1082 25.8418 34.1454 25.8054C34.1825 25.7689 34.2115 25.7253 34.2306 25.6773C34.2496 25.6293 34.2582 25.5779 34.2559 25.5264C34.2591 25.4771 34.2508 25.4278 34.2317 25.3822C34.2125 25.3365 34.183 25.2957 34.1454 25.2629C34.109 25.2244 34.0651 25.1936 34.0162 25.1723C33.9673 25.151 33.9146 25.1396 33.8611 25.1389C33.7586 25.1444 33.6623 25.1889 33.5927 25.2629C33.5551 25.2957 33.5256 25.3365 33.5064 25.3822C33.4872 25.4278 33.4789 25.4771 33.4821 25.5264C33.4798 25.5779 33.4885 25.6293 33.5075 25.6773C33.5265 25.7253 33.5555 25.7689 33.5927 25.8054C33.6274 25.8406 33.6691 25.8684 33.7153 25.8871C33.7615 25.9057 33.8112 25.9149 33.8611 25.9139C33.9136 25.9161 33.966 25.9076 34.0149 25.8889Z" fill="#3E0719"/>
</g>
<defs>
<clipPath id="clip0_2596_33747">
<rect width="66" height="41" fill="white" transform="translate(0 0.5)"/>
</clipPath>
</defs>
</svg>
