<svg width="49" height="12" viewBox="0 0 49 12" fill="none" xmlns="http://www.w3.org/2000/svg">
<path fill-rule="evenodd" clip-rule="evenodd" d="M33.2053 5.21807H31.921C31.7984 5.21807 31.6832 5.27864 31.6138 5.38L29.8423 7.97597L29.0913 5.48125C29.0442 5.32519 28.8994 5.21807 28.7354 5.21807H27.4733C27.32 5.21807 27.2134 5.36717 27.2622 5.51083L28.6769 9.64112L27.3468 11.5091C27.2422 11.6563 27.3476 11.8585 27.5283 11.8585H28.8113C28.9329 11.8585 29.047 11.7995 29.1161 11.7002L33.388 5.56554C33.4902 5.41883 33.3853 5.21807 33.2053 5.21807ZM26.3986 5.21817H25.1204C25.0115 5.21817 24.9175 5.29746 24.9007 5.40491L24.8442 5.76064L24.7548 5.63166C24.4781 5.2321 23.8611 5.09854 23.2452 5.09854C21.8328 5.09854 20.6264 6.16282 20.3915 7.65581C20.2693 8.40034 20.443 9.11247 20.8676 9.60916C21.2571 10.0657 21.8144 10.2559 22.4775 10.2559C23.6155 10.2559 24.2466 9.52792 24.2466 9.52792L24.1897 9.88126C24.1682 10.0164 24.2728 10.1375 24.409 10.1375H25.5603C25.7433 10.1375 25.8979 10.0055 25.9268 9.8258L26.6175 5.47364C26.6395 5.33976 26.5351 5.21817 26.3986 5.21817ZM24.6165 7.69285C24.4932 8.41921 23.9136 8.90687 23.1745 8.90687C22.8032 8.90687 22.5066 8.78854 22.3162 8.56407C22.1273 8.34124 22.0555 8.024 22.1156 7.67066C22.2307 6.95049 22.8201 6.44685 23.5479 6.44685C23.9108 6.44685 24.2059 6.56692 24.4002 6.79324C24.5951 7.02184 24.6722 7.34103 24.6165 7.69285ZM18.4196 2.76196H15.7505C15.5678 2.76196 15.4125 2.89388 15.3841 3.07333L14.3046 9.88225C14.2831 10.0167 14.3876 10.1378 14.5247 10.1378H15.7989C15.9816 10.1378 16.137 10.0058 16.1654 9.82602L16.4566 7.98959C16.4846 7.80982 16.6404 7.67779 16.8226 7.67779H17.6676C19.4258 7.67779 20.4405 6.83135 20.7055 5.15403C20.8249 4.42026 20.7106 3.84364 20.3652 3.43983C19.9858 2.99644 19.313 2.76196 18.4196 2.76196ZM18.7274 5.24877C18.5814 6.20157 17.8497 6.20157 17.142 6.20157H16.7393L17.0218 4.42212C17.0386 4.31456 17.1323 4.23539 17.2416 4.23539H17.4262C17.9081 4.23539 18.3628 4.23539 18.5977 4.50869C18.7379 4.67182 18.7808 4.91413 18.7274 5.24877Z" fill="#253B80"/>
<mask id="mask0_3383_3767" style="mask-type:alpha" maskUnits="userSpaceOnUse" x="33" y="2" width="16" height="9">
<path fill-rule="evenodd" clip-rule="evenodd" d="M33.3389 2.76172H48.6164V10.256H33.3389V2.76172Z" fill="white"/>
</mask>
<g mask="url(#mask0_3383_3767)">
<path fill-rule="evenodd" clip-rule="evenodd" d="M46.9416 2.94889L45.8462 9.88242C45.8246 10.0168 45.9292 10.138 46.0653 10.138H47.1668C47.3498 10.138 47.5052 10.006 47.5333 9.82619L48.6136 3.01762C48.635 2.8832 48.5304 2.76172 48.3942 2.76172H47.1609C47.0521 2.76215 46.9584 2.84133 46.9416 2.94889ZM45.4341 5.21812H44.1566C44.0469 5.21812 43.9537 5.2974 43.9373 5.40485L43.8808 5.76059L43.791 5.6316C43.5142 5.23215 42.8977 5.09859 42.2818 5.09859C40.8694 5.09859 39.6633 6.16276 39.4284 7.65575C39.3066 8.40028 39.4796 9.11241 39.9042 9.6091C40.2944 10.0656 40.851 10.2559 41.514 10.2559C42.6521 10.2559 43.2832 9.52796 43.2832 9.52796L43.2263 9.88131C43.2047 10.0164 43.3093 10.1374 43.4463 10.1374H44.5973C44.7796 10.1374 44.9348 10.0054 44.9633 9.82574L45.6545 5.47358C45.6757 5.3397 45.571 5.21812 45.4341 5.21812ZM43.6532 7.6932C43.5307 8.41946 42.9503 8.90723 42.2112 8.90723C41.8408 8.90723 41.5434 8.78879 41.3529 8.56433C41.164 8.34149 41.093 8.02425 41.1523 7.67091C41.2683 6.95073 41.8568 6.4472 42.5847 6.4472C42.9476 6.4472 43.2426 6.56716 43.437 6.79347C43.6325 7.02218 43.7098 7.34127 43.6532 7.6932ZM37.4567 2.76197H34.7872C34.605 2.76197 34.4497 2.894 34.4212 3.07334L33.3417 9.88226C33.3202 10.0167 33.4248 10.1378 33.561 10.1378H34.9309C35.0581 10.1378 35.167 10.0454 35.1869 9.91956L35.4932 7.9896C35.5213 7.80983 35.6771 7.6778 35.8593 7.6778H36.7039C38.4625 7.6778 39.4769 6.83136 39.7422 5.15404C39.862 4.42027 39.7469 3.84365 39.4014 3.43984C39.0225 2.99645 38.35 2.76197 37.4567 2.76197ZM37.7653 5.24882C37.6197 6.20162 36.8879 6.20162 36.1799 6.20162H35.7775L36.0604 4.42217C36.0773 4.31472 36.1702 4.23544 36.2798 4.23544H36.4644C36.946 4.23544 37.4011 4.23544 37.636 4.50874C37.7761 4.67187 37.8187 4.91418 37.7653 5.24882Z" fill="#179BD7"/>
</g>
<path fill-rule="evenodd" clip-rule="evenodd" d="M9.90015 3.5183C9.75891 3.35876 9.58357 3.22629 9.37871 3.11841C9.36777 3.1879 9.35531 3.25892 9.34132 3.33189C9.32798 3.39997 9.31333 3.46631 9.29836 3.53189C8.76663 5.84369 7.14861 6.64967 5.09735 6.64967H4.0233C3.7653 6.64967 3.54798 6.83596 3.50775 7.08914L3.02074 10.1619L2.95788 10.5587L2.80221 11.5422C2.77608 11.7084 2.90475 11.8581 3.07343 11.8581H4.97841C5.20394 11.8581 5.39557 11.6951 5.4311 11.4738L5.44979 11.3776L5.80847 9.11317L5.83154 8.98887C5.86663 8.76679 6.05859 8.60377 6.28422 8.60377H6.56911C8.41473 8.60377 9.85949 7.85836 10.2819 5.70111C10.4582 4.79997 10.3669 4.0475 9.90015 3.5183Z" fill="#179BD7"/>
<path fill-rule="evenodd" clip-rule="evenodd" d="M8.87372 2.91823C8.80004 2.89691 8.72384 2.87744 8.64579 2.86004C8.56741 2.84297 8.48695 2.82774 8.4043 2.81458C8.11461 2.76804 7.79737 2.74585 7.45739 2.74585H4.5881C4.51748 2.74585 4.45036 2.76184 4.39023 2.79055C4.25796 2.85384 4.15957 2.97848 4.13574 3.13106L3.52541 6.97716L3.50781 7.0894C3.54804 6.83622 3.76537 6.64992 4.02336 6.64992H5.09741C7.20683 6.64992 8.85852 5.79761 9.34127 3.33215C9.3557 3.25917 9.36784 3.18805 9.37877 3.11855C9.25655 3.05417 9.12428 2.99903 8.98183 2.95205C8.94674 2.94041 8.91045 2.92921 8.87372 2.91823Z" fill="#222D65"/>
<mask id="mask1_3383_3767" style="mask-type:alpha" maskUnits="userSpaceOnUse" x="0" y="0" width="10" height="11">
<path fill-rule="evenodd" clip-rule="evenodd" d="M0.383301 0.141602H9.4315V10.5588H0.383301V0.141602Z" fill="white"/>
</mask>
<g mask="url(#mask1_3383_3767)">
<path fill-rule="evenodd" clip-rule="evenodd" d="M4.13541 3.13084C4.15924 2.97825 4.25763 2.85362 4.3899 2.79076C4.45035 2.76194 4.51715 2.74606 4.58777 2.74606H7.45705C7.79703 2.74606 8.11428 2.76825 8.40386 2.8148C8.48661 2.82795 8.56707 2.84307 8.64545 2.86025C8.72351 2.87766 8.7997 2.89712 8.87338 2.91844C8.91011 2.92931 8.94641 2.94062 8.98183 2.95183C9.12438 2.99881 9.25665 3.05427 9.37876 3.11844C9.52241 2.20718 9.37767 1.58674 8.88235 1.02491C8.33641 0.40642 7.3509 0.141602 6.08991 0.141602H2.42916C2.1715 0.141602 1.95177 0.328007 1.91198 0.581515L0.387201 10.1969C0.357138 10.3872 0.504718 10.5588 0.697447 10.5588H2.95761L3.52508 6.97706L4.13541 3.13084Z" fill="#253B80"/>
</g>
</svg>
