<svg width="41" height="41" viewBox="0 0 41 41" fill="none" xmlns="http://www.w3.org/2000/svg">
<path d="M38.6169 41.0083L23.9169 26.3667C22.7503 27.3389 21.4086 28.0972 19.8919 28.6417C18.3753 29.1861 16.8197 29.4583 15.2253 29.4583C11.2197 29.4583 7.83637 28.0778 5.07526 25.3167C2.31415 22.5556 0.933594 19.1722 0.933594 15.1667C0.933594 11.2 2.31415 7.826 5.07526 5.04467C7.83637 2.26489 11.2197 0.875 15.2253 0.875C19.1919 0.875 22.5558 2.25556 25.3169 5.01667C28.078 7.77778 29.4586 11.1611 29.4586 15.1667C29.4586 16.8389 29.1864 18.4333 28.6419 19.95C28.0975 21.4667 27.3586 22.7889 26.4253 23.9167L41.0669 38.5583L38.6169 41.0083ZM15.2253 25.9583C18.2197 25.9583 20.7576 24.9083 22.8389 22.8083C24.9187 20.7083 25.9586 18.1611 25.9586 15.1667C25.9586 12.1722 24.9187 9.625 22.8389 7.525C20.7576 5.425 18.2197 4.375 15.2253 4.375C12.1919 4.375 9.63537 5.425 7.55559 7.525C5.47426 9.625 4.43359 12.1722 4.43359 15.1667C4.43359 18.1611 5.47426 20.7083 7.55559 22.8083C9.63537 24.9083 12.1919 25.9583 15.2253 25.9583Z" fill="#1C1B1F"/>
</svg>
