<svg width="24" height="16" viewBox="0 0 24 16" fill="none" xmlns="http://www.w3.org/2000/svg">
<g clip-path="url(#clip0_3139_43774)">
<path d="M22.3174 6.99111L21.6971 4.54726C21.7817 4.53022 21.8577 4.48474 21.9121 4.41856C21.9666 4.35239 21.9961 4.26963 21.9957 4.18437V3.79313C21.9957 3.37959 21.8293 2.98295 21.5331 2.69054C21.2369 2.39812 20.8352 2.23383 20.4164 2.23383H17.5851V1.41733C17.5858 1.31707 17.5665 1.21766 17.5281 1.12482C17.4898 1.03198 17.4332 0.947553 17.3617 0.876399C17.2902 0.805242 17.2051 0.748768 17.1113 0.710229C17.0176 0.671692 16.917 0.651853 16.8155 0.651855H2.37761C2.17198 0.651855 1.97478 0.732503 1.82938 0.876057C1.68398 1.01961 1.6023 1.21431 1.6023 1.41733V8.12515C1.60378 8.22393 1.64419 8.31828 1.71495 8.38815C1.78572 8.45802 1.88127 8.49791 1.98133 8.49937C2.03084 8.49939 2.07986 8.48965 2.12553 8.47078C2.1712 8.45191 2.2126 8.42426 2.24735 8.38943C2.28209 8.35461 2.30946 8.3133 2.32789 8.26793C2.3463 8.22256 2.35539 8.17402 2.35462 8.12515V1.41733V1.38898H16.8155V1.41733V8.12515C16.8155 8.22439 16.8554 8.31959 16.9265 8.38976C16.9976 8.45996 17.094 8.49937 17.1945 8.49937C17.244 8.49939 17.2931 8.48965 17.3387 8.47078C17.3844 8.45191 17.4258 8.42426 17.4606 8.38943C17.4953 8.35461 17.5227 8.3133 17.5411 8.26793C17.5595 8.22256 17.5686 8.17402 17.5678 8.12515V7.70554H22.0072C22.2641 7.71017 22.5131 7.79415 22.719 7.94569C22.9251 8.09724 23.0779 8.30872 23.1558 8.55041H22.0072C21.9082 8.55041 21.8132 8.58924 21.7432 8.65835C21.6732 8.72748 21.6339 8.82122 21.6339 8.91898V9.71278C21.6338 10.0162 21.7539 10.3077 21.9685 10.5249C22.183 10.742 22.4752 10.8678 22.7824 10.8752H23.2076V12.5025H22.2656C22.1047 12.0402 21.8014 11.639 21.3983 11.355C20.9952 11.0711 20.5124 10.9184 20.0172 10.9184C19.522 10.9184 19.0392 11.0711 18.6362 11.355C18.2331 11.639 17.9299 12.0402 17.7689 12.5025H17.5851V9.7298C17.5858 9.68093 17.5767 9.63239 17.5583 9.58702C17.5399 9.54165 17.5125 9.50035 17.4778 9.46552C17.443 9.43069 17.4016 9.40304 17.356 9.38415C17.3103 9.36528 17.2613 9.35556 17.2118 9.35556C17.1113 9.35556 17.0148 9.395 16.9438 9.46517C16.8727 9.53537 16.8327 9.63054 16.8327 9.7298V12.5195H9.03948C8.87846 12.0572 8.57524 11.656 8.17218 11.3721C7.76911 11.0881 7.28627 10.9354 6.7911 10.9354C6.29593 10.9354 5.81309 11.0881 5.41002 11.3721C5.00695 11.656 4.70374 12.0572 4.54272 12.5195H2.37761V11.6803H4.00862C4.10761 11.6803 4.20258 11.6415 4.27257 11.5724C4.34257 11.5033 4.38192 11.4095 4.38192 11.3118C4.38192 11.2135 4.34277 11.1192 4.27292 11.0492C4.20308 10.9791 4.10814 10.939 4.00862 10.9375H0.379037C0.27851 10.9375 0.182101 10.977 0.111018 11.0472C0.0399345 11.1173 2.61492e-09 11.2125 2.61492e-09 11.3118C-5.85677e-06 11.3607 0.00983542 11.4091 0.0289535 11.4542C0.0480713 11.4992 0.0760831 11.5401 0.111357 11.5744C0.146632 11.6087 0.188465 11.6357 0.234421 11.6539C0.280375 11.6721 0.329535 11.6811 0.379037 11.6803H1.6023V12.4968C1.6023 12.6999 1.68398 12.8946 1.82938 13.0381C1.97478 13.1817 2.17198 13.2623 2.37761 13.2623H4.41063C4.44066 13.8657 4.70455 14.4345 5.14769 14.8511C5.59083 15.2676 6.17925 15.5 6.7911 15.5C7.40294 15.5 7.99136 15.2676 8.4345 14.8511C8.87764 14.4345 9.14153 13.8657 9.17157 13.2623H17.6368C17.6668 13.8657 17.9307 14.4345 18.3738 14.8511C18.8169 15.2676 19.4054 15.5 20.0172 15.5C20.6291 15.5 21.2175 15.2676 21.6606 14.8511C22.1038 14.4345 22.3678 13.8657 22.3977 13.2623H23.6268C23.7257 13.2623 23.8206 13.2235 23.8906 13.1544C23.9606 13.0853 24 12.9915 24 12.8938V8.92463C24 8.45698 23.8302 8.0048 23.5215 7.65009C23.2128 7.29539 22.7855 7.06161 22.3174 6.99111ZM17.5851 2.96528H20.4164C20.5252 2.96454 20.6331 2.98513 20.7337 3.02591C20.8344 3.06667 20.9259 3.12678 21.0028 3.20276C21.0798 3.27872 21.1407 3.36904 21.182 3.46843C21.2232 3.56785 21.2441 3.67435 21.2434 3.78178H17.5851V2.96528ZM17.5851 6.96843V4.55861H20.9275L21.542 6.99111L17.5851 6.96843ZM6.78824 14.9067C6.4654 14.9067 6.14984 14.8121 5.8815 14.6349C5.61316 14.4577 5.4041 14.2058 5.28081 13.9113C5.15756 13.6167 5.12559 13.2926 5.189 12.9801C5.25239 12.6676 5.4083 12.3806 5.63696 12.1557C5.86564 11.9307 6.15682 11.7778 6.47357 11.7163C6.79033 11.6548 7.11844 11.6875 7.41637 11.8102C7.7143 11.933 7.96864 12.1403 8.14716 12.4058C8.32569 12.6714 8.42037 12.9833 8.41924 13.302C8.41621 13.7266 8.24283 14.1327 7.93713 14.4313C7.63143 14.73 7.21828 14.8968 6.78824 14.8953V14.9067ZM19.9971 14.9067C19.6743 14.9067 19.3587 14.8121 19.0904 14.6349C18.8221 14.4577 18.613 14.2058 18.4897 13.9113C18.3665 13.6167 18.3345 13.2926 18.3979 12.9801C18.4613 12.6676 18.6172 12.3806 18.8459 12.1557C19.0745 11.9307 19.3657 11.7778 19.6825 11.7163C19.9992 11.6548 20.3274 11.6875 20.6253 11.8102C20.9232 11.933 21.1775 12.1403 21.3561 12.4058C21.5346 12.6714 21.6293 12.9833 21.6281 13.302C21.6251 13.7237 21.4542 14.1272 21.1521 14.4254C20.8502 14.7235 20.4414 14.8924 20.0143 14.8953L19.9971 14.9067ZM23.2305 10.1607H22.8055C22.7496 10.1607 22.6943 10.1499 22.6428 10.1288C22.5913 10.1077 22.5444 10.0768 22.505 10.0378C22.4655 9.99887 22.4343 9.95263 22.4129 9.90172C22.3916 9.8508 22.3806 9.79624 22.3806 9.74115V9.31587H23.2476V10.1607H23.2305Z" fill="#3E0719"/>
<path d="M7.98277 5.47161L7.51186 4.55871V6.34482H6.8916V3.31128H7.54057L8.20101 4.68913L8.86145 3.31128H9.52189V6.34482H8.89591V4.54169L8.43073 5.47161H7.98277Z" fill="#3E0719"/>
<path d="M11.3591 6.34482H10.693V5.29017L9.99805 4.15613C9.94917 4.07795 9.92515 3.98708 9.92914 3.8953V3.31128H10.5953V3.83861C10.5905 3.90528 10.6044 3.972 10.6355 4.03139L11.072 4.72315L11.4625 4.10508C11.4946 4.04589 11.5104 3.97943 11.5084 3.9123V3.3453H12.1459V3.95767C12.147 4.04915 12.1232 4.13924 12.077 4.2185L11.3591 5.29017V6.36182V6.34482Z" fill="#3E0719"/>
<path d="M7.98277 8.90764L7.51186 7.99475V9.78086H6.8916V6.75299H7.54057L8.20101 8.12516L8.86145 6.74731H9.52189V9.77518H8.89591V7.97775L8.43073 8.90764H7.98277Z" fill="#3E0719"/>
<path d="M11.4281 8.73745H12.0885V9.16273C12.1048 9.25089 12.0997 9.3416 12.0736 9.42743C12.0475 9.51326 12.0012 9.59176 11.9384 9.6565C11.8756 9.72123 11.7982 9.77037 11.7125 9.79984C11.6268 9.82932 11.5352 9.83834 11.4453 9.82613H10.6011C10.5139 9.83726 10.4254 9.8285 10.3422 9.80052C10.259 9.77254 10.1835 9.72608 10.1213 9.66473C10.0592 9.60341 10.0122 9.5288 9.98383 9.44667C9.95549 9.36456 9.94659 9.2771 9.95787 9.19108V7.37095C9.94659 7.28491 9.95549 7.19747 9.98383 7.11534C10.0122 7.03323 10.0592 6.95863 10.1213 6.89728C10.1835 6.83593 10.259 6.7895 10.3422 6.76152C10.4254 6.73352 10.5139 6.72476 10.6011 6.73589H11.4453C11.5325 6.72476 11.621 6.73352 11.7042 6.76152C11.7874 6.7895 11.8629 6.83593 11.9251 6.89728C11.9872 6.95863 12.0342 7.03323 12.0626 7.11534C12.0909 7.19747 12.0998 7.28491 12.0885 7.37095V7.7055H11.4281V7.41065C11.4299 7.39606 11.4284 7.38123 11.4236 7.36732C11.4188 7.35341 11.4108 7.34078 11.4003 7.33039C11.3897 7.31997 11.3769 7.3121 11.3628 7.30734C11.3487 7.30258 11.3337 7.30106 11.319 7.30291H10.7447C10.7299 7.30106 10.7149 7.30258 10.7008 7.30734C10.6867 7.3121 10.6739 7.31997 10.6634 7.33039C10.6528 7.34078 10.6449 7.35341 10.64 7.36732C10.6352 7.38123 10.6337 7.39606 10.6355 7.41065V9.11169C10.6337 9.12628 10.6352 9.1411 10.64 9.15502C10.6449 9.16893 10.6528 9.18156 10.6634 9.19195C10.6739 9.20234 10.6867 9.21023 10.7008 9.215C10.7149 9.21976 10.7299 9.22128 10.7447 9.21943H11.319C11.3337 9.22128 11.3487 9.21976 11.3628 9.215C11.3769 9.21023 11.3897 9.20234 11.4003 9.19195C11.4108 9.18156 11.4188 9.16893 11.4236 9.15502C11.4284 9.1411 11.4299 9.12628 11.4281 9.11169V8.72613V8.73745Z" fill="#3E0719"/>
<path d="M12.3688 9.78867C12.3866 9.78185 12.4027 9.77143 12.4163 9.75811C12.4297 9.74478 12.4403 9.7288 12.4472 9.71124C12.4541 9.69367 12.4573 9.67487 12.4564 9.65604C12.4576 9.63802 12.4546 9.61998 12.4476 9.60328C12.4406 9.58656 12.4299 9.57165 12.4163 9.55965C12.403 9.54556 12.387 9.53428 12.3693 9.5265C12.3515 9.51869 12.3323 9.51454 12.3129 9.51428C12.2756 9.5163 12.2406 9.53256 12.2152 9.55965C12.2016 9.57165 12.1909 9.58656 12.1839 9.60328C12.1769 9.61998 12.1739 9.63802 12.175 9.65604C12.1742 9.67487 12.1774 9.69367 12.1843 9.71124C12.1912 9.7288 12.2017 9.74478 12.2152 9.75811C12.2279 9.771 12.2431 9.78117 12.2599 9.788C12.2767 9.79483 12.2947 9.79817 12.3129 9.7978C12.3319 9.79861 12.351 9.7955 12.3688 9.78867Z" fill="#3E0719"/>
</g>
<defs>
<clipPath id="clip0_3139_43774">
<rect width="24" height="15" fill="white" transform="translate(0 0.5)"/>
</clipPath>
</defs>
</svg>
