<svg width="24" height="24" viewBox="0 0 24 24" fill="none" xmlns="http://www.w3.org/2000/svg">
<mask id="mask0_2326_77207" style="mask-type:alpha" maskUnits="userSpaceOnUse" x="0" y="0" width="24" height="24">
<rect width="24" height="24" fill="#D9D9D9"/>
</mask>
<g mask="url(#mask0_2326_77207)">
<path d="M11 17.75C10.7833 17.75 10.6043 17.6793 10.463 17.538C10.321 17.396 10.25 17.2167 10.25 17C10.25 16.7833 10.321 16.604 10.463 16.462C10.6043 16.3207 10.7833 16.25 11 16.25H13C13.2167 16.25 13.396 16.3207 13.538 16.462C13.6793 16.604 13.75 16.7833 13.75 17C13.75 17.2167 13.6793 17.396 13.538 17.538C13.396 17.6793 13.2167 17.75 13 17.75H11ZM4 7.375C3.78333 7.375 3.60433 7.3 3.463 7.15C3.321 7 3.25 6.825 3.25 6.625C3.25 6.40833 3.321 6.22933 3.463 6.088C3.60433 5.946 3.78333 5.875 4 5.875H20C20.2167 5.875 20.396 5.946 20.538 6.088C20.6793 6.22933 20.75 6.40833 20.75 6.625C20.75 6.825 20.6793 7 20.538 7.15C20.396 7.3 20.2167 7.375 20 7.375H4ZM7 12.55C6.78333 12.55 6.60433 12.479 6.463 12.337C6.321 12.1957 6.25 12.0167 6.25 11.8C6.25 11.6 6.321 11.425 6.463 11.275C6.60433 11.125 6.78333 11.05 7 11.05H17C17.2167 11.05 17.396 11.125 17.538 11.275C17.6793 11.425 17.75 11.6 17.75 11.8C17.75 12.0167 17.6793 12.1957 17.538 12.337C17.396 12.479 17.2167 12.55 17 12.55H7Z" fill="#1C1B1F"/>
</g>
</svg>
