<svg width="12" height="15" viewBox="0 0 12 15" fill="none" xmlns="http://www.w3.org/2000/svg">
<path d="M4.13398 1.83337V0.833374H7.86732V1.83337H4.13398ZM5.50065 9.20004H6.50065V5.46671H5.50065V9.20004ZM6.00065 14.3334C5.22287 14.3334 4.48954 14.1834 3.80065 13.8834C3.11176 13.5834 2.51176 13.1778 2.00065 12.6667C1.48954 12.1556 1.08398 11.5556 0.783984 10.8667C0.483985 10.1778 0.333984 9.44449 0.333984 8.66671C0.333984 7.88893 0.483985 7.1556 0.783984 6.46671C1.08398 5.77782 1.48954 5.17782 2.00065 4.66671C2.51176 4.1556 3.11176 3.75004 3.80065 3.45004C4.48954 3.15004 5.22287 3.00004 6.00065 3.00004C6.66732 3.00004 7.30909 3.11382 7.92598 3.34137C8.54243 3.56937 9.11732 3.89449 9.65065 4.31671L10.484 3.48337L11.184 4.18337L10.3506 5.01671C10.7729 5.55004 11.098 6.12515 11.326 6.74204C11.5535 7.35849 11.6673 8.00004 11.6673 8.66671C11.6673 9.44449 11.5173 10.1778 11.2173 10.8667C10.9173 11.5556 10.5118 12.1556 10.0007 12.6667C9.48954 13.1778 8.88954 13.5834 8.20065 13.8834C7.51176 14.1834 6.77843 14.3334 6.00065 14.3334ZM6.00065 13.3334C7.28954 13.3334 8.38954 12.8778 9.30065 11.9667C10.2118 11.0556 10.6673 9.9556 10.6673 8.66671C10.6673 7.37782 10.2118 6.27782 9.30065 5.36671C8.38954 4.4556 7.28954 4.00004 6.00065 4.00004C4.71176 4.00004 3.61176 4.4556 2.70065 5.36671C1.78954 6.27782 1.33398 7.37782 1.33398 8.66671C1.33398 9.9556 1.78954 11.0556 2.70065 11.9667C3.61176 12.8778 4.71176 13.3334 6.00065 13.3334Z" fill="#DB2430"/>
</svg>
