<svg width="43" height="16" viewBox="0 0 43 16" fill="none" xmlns="http://www.w3.org/2000/svg">
<path fill-rule="evenodd" clip-rule="evenodd" d="M29.5422 3.07086C29.8245 3.31175 30.1873 3.43707 30.558 3.42173L30.5591 3.43226C30.9303 3.44837 31.2937 3.32297 31.5761 3.08139C31.8404 2.83815 31.9841 2.49068 31.9688 2.13169C31.9955 1.74737 31.8256 1.37573 31.5176 1.14456C31.2392 0.941691 30.9035 0.832731 30.5591 0.833449C30.1852 0.816738 29.8198 0.948284 29.5422 1.19953C29.2929 1.44701 29.1527 1.78383 29.1527 2.13519C29.1527 2.48656 29.2929 2.82338 29.5422 3.07086ZM21.1252 12.5876C20.8631 12.5997 20.6081 12.4998 20.4239 12.3127C20.2486 12.129 20.1542 11.8825 20.1621 11.6285C20.1601 11.3737 20.225 11.1229 20.3503 10.9011C20.4621 10.7012 20.5975 10.5155 20.7535 10.3478L24.653 6.08708H21.255C20.981 6.11541 20.7138 5.98984 20.5607 5.76077C20.4353 5.54476 20.3722 5.29822 20.3783 5.0485C20.3705 4.80716 20.4424 4.56998 20.5829 4.37365C20.7271 4.18557 20.954 4.07988 21.1907 4.09061H27.1953C27.4478 4.07997 27.6941 4.16999 27.8803 4.3409C28.0588 4.52617 28.152 4.77753 28.1374 5.03446C28.1436 5.26601 28.0935 5.49559 27.9913 5.70346C27.8927 5.8858 27.7692 6.05349 27.6243 6.2017L23.5647 10.5911H27.4116C27.6411 10.5859 27.8602 10.6869 28.0054 10.8648C28.1545 11.0613 28.2306 11.3036 28.2204 11.5502C28.2309 11.8068 28.1672 12.061 28.0369 12.2823C27.8763 12.5 27.6129 12.6169 27.3438 12.5899L21.1252 12.5876ZM30.5582 12.7048C29.491 12.7048 29.2724 12.1749 29.2724 11.7305V5.23937C29.257 4.93429 29.3712 4.63691 29.5868 4.42067C29.8673 4.19479 30.2239 4.08549 30.5827 4.11541C30.8998 4.09706 31.2139 4.18469 31.4758 4.36453C31.7036 4.55536 31.8273 4.8432 31.8089 5.13995V11.6896C31.8323 11.9921 31.7001 12.2856 31.4582 12.4685C31.1906 12.639 30.8761 12.7209 30.5593 12.7024L30.5582 12.7048ZM34.5882 15.1889C33.5888 15.1889 33.3772 14.6497 33.3772 14.1982V5.01355C33.3697 4.72416 33.4848 4.44507 33.694 4.24514C33.9736 4.01835 34.3302 3.90892 34.6887 3.93988C34.968 3.93605 35.2442 3.99773 35.4953 4.11999C35.7711 4.26778 35.9304 4.56762 35.8986 4.87905C36.11 4.63449 36.3595 4.42559 36.6373 4.26034C37.1407 3.95834 37.7184 3.80281 38.3053 3.81122C38.8697 3.79996 39.4293 3.91714 39.9418 4.15391C40.4053 4.37394 40.8111 4.69912 41.127 5.10361C41.4526 5.5296 41.6909 6.01568 41.8284 6.534C41.9868 7.11557 42.0655 7.716 42.0622 8.31878C42.0678 8.93297 41.9791 9.54439 41.7992 10.1316C41.6388 10.6567 41.3775 11.1453 41.03 11.5702C40.6899 11.9754 40.2633 12.2992 39.7816 12.5176C39.2526 12.7517 38.6791 12.8683 38.1008 12.8591C37.7125 12.8701 37.3251 12.8172 36.9541 12.7024C36.6885 12.6161 36.4355 12.4954 36.2013 12.3433C36.0744 12.2607 35.9568 12.1647 35.8506 12.0568V14.148C35.8767 14.4463 35.7642 14.74 35.5455 14.9444C35.2638 15.1311 34.9271 15.2165 34.5906 15.1865L34.5882 15.1889ZM36.8698 6.07542C37.1139 5.95004 37.3856 5.8881 37.6599 5.8953V5.89296C37.9307 5.88893 38.198 5.9533 38.4373 6.08009C38.663 6.20253 38.8568 6.37642 39.003 6.58769C39.1642 6.825 39.2829 7.08858 39.3537 7.36662C39.4388 7.68874 39.4816 8.02056 39.4811 8.35374C39.5042 8.98137 39.3415 9.60184 39.0135 10.1373C38.7195 10.589 38.2059 10.848 37.6681 10.8157C37.1323 10.8479 36.6175 10.6023 36.3052 10.1654C35.9565 9.6279 35.7871 8.99364 35.8212 8.35374C35.8167 8.02022 35.856 7.68756 35.9381 7.36428C36.0094 7.08425 36.131 6.81952 36.297 6.58301C36.4469 6.37251 36.6428 6.19892 36.8698 6.07542Z" fill="#272560"/>
<path d="M15.6656 6.13939L12.3389 9.03293H4.09937C3.3353 9.03002 2.59519 9.29954 2.01172 9.79315L6.16715 6.17916L6.23027 6.12419L11.4377 1.59325C12.289 0.860525 13.4585 0.620309 14.5295 0.958165C15.5897 1.28183 16.3958 2.14825 16.6428 3.22948C16.875 4.30421 16.4994 5.41978 15.6645 6.13471L15.6656 6.13939Z" fill="#F15B41"/>
<ellipse cx="4.09938" cy="3.86933" rx="3.16188" ry="3.0561" fill="#F99C1C"/>
<path d="M4.09931 9.03152C3.33525 9.02861 2.59513 9.29813 2.01166 9.79174L1.98477 9.81396C1.36421 10.3445 0.988004 11.1062 0.94383 11.9217C0.899655 12.7372 1.19137 13.5352 1.75099 14.1297C2.93803 15.3865 4.90209 15.4894 6.21385 14.3636L12.3412 9.0362L4.09931 9.03152Z" fill="#272560"/>
<path d="M12.3347 9.03505L6.20849 14.3613C5.6203 14.8679 4.86885 15.1446 4.09277 15.1402H13.5469C14.3687 15.1635 15.1647 14.851 15.7514 14.2747C16.3382 13.6984 16.6653 12.908 16.6573 12.0853C16.6393 10.3832 15.248 9.01674 13.5469 9.03037L12.3347 9.03505Z" fill="#00B5BC"/>
</svg>
