<svg width="16" height="15" viewBox="0 0 16 15" fill="none" xmlns="http://www.w3.org/2000/svg">
<path d="M7.1 14.6001L0.65 8.12513C0.55 8.0418 0.479334 7.9458 0.438 7.83713C0.396 7.72913 0.375 7.6168 0.375 7.50013C0.375 7.38346 0.396 7.2708 0.438 7.16213C0.479334 7.05413 0.55 6.95846 0.65 6.87513L7.1 0.400131C7.25 0.266798 7.425 0.195798 7.625 0.187131C7.825 0.179131 8 0.250131 8.15 0.400131C8.3 0.550131 8.379 0.725131 8.387 0.925131C8.39567 1.12513 8.325 1.30846 8.175 1.47513L2.875 6.75013H14.5C14.7 6.75013 14.875 6.8208 15.025 6.96213C15.175 7.10413 15.25 7.28346 15.25 7.50013C15.25 7.7168 15.175 7.8958 15.025 8.03713C14.875 8.17913 14.7 8.25013 14.5 8.25013H2.875L8.175 13.5501C8.30833 13.6835 8.379 13.8541 8.387 14.0621C8.39567 14.2708 8.325 14.4501 8.175 14.6001C8.025 14.7501 7.846 14.8251 7.638 14.8251C7.42933 14.8251 7.25 14.7501 7.1 14.6001Z" fill="black"/>
</svg>
