<svg width="16" height="16" viewBox="0 0 16 16" fill="none" xmlns="http://www.w3.org/2000/svg">
<path d="M6.938 11L11.896 6.062L10.833 5L6.938 8.875L5.167 7.125L4.104 8.188L6.938 11ZM8 16C6.90267 16 5.868 15.7917 4.896 15.375C3.924 14.9583 3.07333 14.3853 2.344 13.656C1.61467 12.9267 1.04167 12.076 0.625 11.104C0.208333 10.132 0 9.09733 0 8C0 6.88867 0.208333 5.85033 0.625 4.885C1.04167 3.92033 1.61467 3.07333 2.344 2.344C3.07333 1.61467 3.924 1.04167 4.896 0.625C5.868 0.208333 6.90267 0 8 0C9.11133 0 10.1497 0.208333 11.115 0.625C12.0797 1.04167 12.9267 1.61467 13.656 2.344C14.3853 3.07333 14.9583 3.92033 15.375 4.885C15.7917 5.85033 16 6.88867 16 8C16 9.09733 15.7917 10.132 15.375 11.104C14.9583 12.076 14.3853 12.9267 13.656 13.656C12.9267 14.3853 12.0797 14.9583 11.115 15.375C10.1497 15.7917 9.11133 16 8 16Z" fill="#008A22"/>
</svg>
