<svg width="25" height="25" viewBox="0 0 25 25" fill="none" xmlns="http://www.w3.org/2000/svg">
<path fill-rule="evenodd" clip-rule="evenodd" d="M8.31646 7.2558C8.02357 6.96291 7.5487 6.96291 7.2558 7.2558C6.96291 7.5487 6.96291 8.02357 7.2558 8.31646L11.4395 12.5002L7.2558 16.6839C6.96291 16.9768 6.96291 17.4517 7.2558 17.7446C7.5487 18.0374 8.02357 18.0374 8.31646 17.7446L12.5002 13.5608L16.6839 17.7446C16.9768 18.0374 17.4517 18.0374 17.7446 17.7446C18.0374 17.4517 18.0374 16.9768 17.7446 16.6839L13.5608 12.5002L17.7446 8.31646C18.0374 8.02357 18.0374 7.5487 17.7446 7.2558C17.4517 6.96291 16.9768 6.96291 16.6839 7.2558L12.5002 11.4395L8.31646 7.2558Z" fill="black"/>
<rect x="1" y="1" width="23" height="23" rx="11.5" stroke="black"/>
</svg>
