<svg width="14" height="14" viewBox="0 0 14 14" fill="none" xmlns="http://www.w3.org/2000/svg">
<path d="M1.32317 12.6788H2.41903L9.88457 5.22435L8.80956 4.13012L1.32317 11.6054V12.6788ZM12.6758 4.31547L9.69796 1.32219L10.629 0.392496C10.905 0.130832 11.2256 0 11.5909 0C11.9562 0 12.2699 0.130832 12.5319 0.392496L13.6278 1.48673C13.8759 1.74839 14 2.06853 14 2.44715C14 2.82577 13.869 3.13897 13.6069 3.38676L12.6758 4.31547ZM11.7666 5.22435L2.97788 14H0V11.0265L8.78871 2.2509L11.7666 5.22435ZM9.34657 4.68814L8.80956 4.13012L9.88457 5.22435L9.34657 4.68814Z" fill="#1C1B1F"/>
<path fill-rule="evenodd" clip-rule="evenodd" d="M9.69796 1.32219L12.6758 4.31547L13.6069 3.38676C13.869 3.13897 14 2.82577 14 2.44715C14 2.06853 13.8759 1.74839 13.6278 1.48673L12.5319 0.392496C12.2699 0.130832 11.9562 0 11.5909 0C11.2256 0 10.905 0.130832 10.629 0.392496L9.69796 1.32219ZM2.97788 14L11.7666 5.22435L8.78871 2.2509L0 11.0265V14H2.97788ZM2.41903 12.6788H1.32317V11.6054L8.80956 4.13012L9.34657 4.68814L9.88457 5.22435L2.41903 12.6788Z" fill="#1C1B1F"/>
</svg>
