<svg width="20" height="20" viewBox="0 0 20 20" fill="none" xmlns="http://www.w3.org/2000/svg">
<path d="M9.25 14.8623H10.75V9.1123H9.25V14.8623ZM10 7.4123C10.2333 7.4123 10.425 7.33297 10.575 7.1743C10.725 7.0163 10.8 6.82064 10.8 6.58731C10.8 6.37064 10.725 6.18297 10.575 6.0243C10.425 5.8663 10.2333 5.7873 10 5.7873C9.76667 5.7873 9.575 5.8663 9.425 6.0243C9.275 6.18297 9.2 6.37064 9.2 6.58731C9.2 6.82064 9.275 7.0163 9.425 7.1743C9.575 7.33297 9.76667 7.4123 10 7.4123ZM10 19.6123C8.68333 19.6123 7.446 19.3623 6.288 18.8623C5.12933 18.3623 4.125 17.6873 3.275 16.8373C2.425 15.9873 1.75 14.983 1.25 13.8243C0.75 12.6663 0.5 11.429 0.5 10.1123C0.5 8.79564 0.75 7.55797 1.25 6.3993C1.75 5.2413 2.425 4.2373 3.275 3.3873C4.125 2.5373 5.12933 1.8623 6.288 1.3623C7.446 0.862305 8.68333 0.612305 10 0.612305C11.3167 0.612305 12.5543 0.862305 13.713 1.3623C14.871 1.8623 15.875 2.5373 16.725 3.3873C17.575 4.2373 18.25 5.2413 18.75 6.3993C19.25 7.55797 19.5 8.79564 19.5 10.1123C19.5 11.429 19.25 12.6663 18.75 13.8243C18.25 14.983 17.575 15.9873 16.725 16.8373C15.875 17.6873 14.871 18.3623 13.713 18.8623C12.5543 19.3623 11.3167 19.6123 10 19.6123ZM10 18.1123C12.2333 18.1123 14.125 17.3373 15.675 15.7873C17.225 14.2373 18 12.3456 18 10.1123C18 7.87897 17.225 5.9873 15.675 4.4373C14.125 2.8873 12.2333 2.1123 10 2.1123C7.76667 2.1123 5.875 2.8873 4.325 4.4373C2.775 5.9873 2 7.87897 2 10.1123C2 12.3456 2.775 14.2373 4.325 15.7873C5.875 17.3373 7.76667 18.1123 10 18.1123Z" fill="#006CED"/>
</svg>
