<svg width="32" height="25" viewBox="0 0 32 25" fill="none" xmlns="http://www.w3.org/2000/svg">
<path fill-rule="evenodd" clip-rule="evenodd" d="M30.0561 20.5005V22.7928V24.0639H29.5005V23.7548C29.3088 24.0015 29.008 24.1405 28.694 24.1275C27.9792 24.0871 27.4204 23.5012 27.4204 22.7921C27.4204 22.083 27.9792 21.4971 28.694 21.4567C29.008 21.4435 29.3089 21.5825 29.5005 21.8294V20.5005H30.0561ZM9.22379 21.5217V22.7928L9.22671 24.0668H8.66962V23.7577C8.4787 24.0045 8.17826 24.1436 7.86462 24.1304C7.14982 24.09 6.59104 23.5041 6.59104 22.795C6.59104 22.0858 7.14982 21.4999 7.86462 21.4596C8.17698 21.447 8.47608 21.5854 8.66671 21.8308V21.5217H9.22379ZM7.15441 22.7928C7.17981 22.3762 7.53694 22.0561 7.95804 22.0726C8.37913 22.0892 8.70958 22.4362 8.70162 22.8535C8.69366 23.2709 8.35022 23.6053 7.92879 23.606C7.71479 23.6081 7.5096 23.5217 7.36263 23.3676C7.21565 23.2136 7.14019 23.0058 7.15441 22.7943V22.7928ZM31.0827 23.7144C31.0505 23.7008 31.0157 23.6939 30.9807 23.6942V23.6956C30.9462 23.6951 30.912 23.7015 30.88 23.7144C30.8182 23.7401 30.769 23.7889 30.743 23.8502C30.7161 23.9124 30.7161 23.9829 30.743 24.0452C30.769 24.1064 30.8182 24.1552 30.88 24.1809C30.945 24.2072 31.0178 24.2072 31.0827 24.1809C31.1446 24.1552 31.1938 24.1064 31.2198 24.0452C31.2465 23.9828 31.2465 23.9125 31.2198 23.8502C31.1937 23.789 31.1445 23.7403 31.0827 23.7144ZM30.9807 24.1434C31.0072 24.1439 31.0335 24.139 31.058 24.1289C31.0817 24.1189 31.103 24.1042 31.1207 24.0856C31.197 24.0086 31.197 23.8852 31.1207 23.8083C31.103 23.7897 31.0817 23.7749 31.058 23.7649C31.0335 23.7548 31.0072 23.7499 30.9807 23.7505C30.9542 23.7501 30.9279 23.755 30.9034 23.7649C30.8789 23.7743 30.857 23.7892 30.8392 23.8083C30.8205 23.8255 30.806 23.8467 30.7969 23.8704C30.7771 23.919 30.7771 23.9734 30.7969 24.022C30.8061 24.0457 30.8205 24.0669 30.8392 24.0842C30.857 24.1033 30.8789 24.1181 30.9034 24.1275C30.9277 24.1384 30.954 24.1443 30.9807 24.1448V24.1434ZM30.9967 23.8299C31.0213 23.8281 31.0457 23.8353 31.0652 23.8502C31.0819 23.8635 31.0911 23.8839 31.09 23.905C31.0904 23.9231 31.083 23.9404 31.0696 23.9527C31.0543 23.9664 31.0348 23.9745 31.0142 23.9758L31.09 24.0639H31.0302L30.9588 23.9758H30.9355V24.0639H30.8859V23.8314L30.9967 23.8299ZM27.9867 22.7928C28.0121 22.3764 28.3689 22.0564 28.7898 22.0726C29.2108 22.0889 29.5414 22.4354 29.5339 22.8526C29.5265 23.2697 29.1838 23.6045 28.7625 23.606C28.5488 23.6077 28.344 23.5211 28.1973 23.3671C28.0507 23.2131 27.9754 23.0055 27.9896 22.7943L27.9867 22.7928ZM16.1159 21.9522C16.2841 21.9487 16.4469 22.0116 16.5683 22.127C16.6898 22.2424 16.7599 22.4008 16.7634 22.5675H15.4377C15.4589 22.2148 15.7594 21.9428 16.1159 21.9536V21.9522ZM14.8374 22.8096C14.8275 22.0874 15.399 21.4881 16.1275 21.4567V21.4596C16.4717 21.4629 16.7987 21.6091 17.0288 21.8625C17.2589 22.116 17.3711 22.4535 17.338 22.7928C17.338 22.8304 17.3353 22.8669 17.3327 22.9026V22.9026V22.9026V22.9026V22.9026V22.9027V22.9027V22.9027V22.9027C17.3302 22.9369 17.3277 22.9705 17.3277 23.0037H15.4319C15.4748 23.3818 15.8133 23.6575 16.1961 23.6263C16.4669 23.6221 16.7287 23.5286 16.9398 23.3605L17.2111 23.7707C16.9185 24.0136 16.5455 24.1407 16.164 24.1275C15.4348 24.1156 14.8472 23.5319 14.8374 22.8096ZM22.8359 22.7928C22.8621 22.3772 23.2188 22.0586 23.6389 22.0756C24.059 22.0926 24.3882 22.4391 24.3801 22.8554C24.3719 23.2717 24.0292 23.6052 23.6088 23.606C23.3941 23.6094 23.1879 23.5235 23.0402 23.3692C22.8925 23.2149 22.8168 23.0064 22.8315 22.7943L22.8359 22.7928ZM24.9038 21.5217V22.7928L24.8994 24.0654H24.3438V23.7563C24.1521 24.0029 23.8513 24.1419 23.5373 24.1289C22.8225 24.0886 22.2637 23.5027 22.2637 22.7935C22.2637 22.0844 22.8225 21.4985 23.5373 21.4582C23.8514 21.4449 24.1522 21.584 24.3438 21.8308V21.5217H24.9038ZM19.7005 22.7928C19.6847 23.1539 19.8237 23.5048 20.0831 23.759C20.3425 24.0131 20.6982 24.147 21.0625 24.1275C21.3963 24.1439 21.7242 24.0357 21.9813 23.8242L21.7144 23.3778C21.5224 23.5231 21.2881 23.6031 21.0465 23.606C20.612 23.5804 20.273 23.2239 20.273 22.7928C20.273 22.3617 20.612 22.0053 21.0465 21.9796C21.2881 21.9825 21.5224 22.0625 21.7144 22.2078L21.9813 21.7615C21.7242 21.55 21.3963 21.4417 21.0625 21.4582C20.6972 21.4374 20.34 21.5708 20.0796 21.8255C19.8191 22.0801 19.6798 22.4321 19.6961 22.7943L19.7005 22.7928ZM26.1857 21.8294C26.3246 21.5926 26.583 21.4497 26.8594 21.4567L26.855 21.4596C26.9914 21.4574 27.1272 21.4789 27.2561 21.5232L27.0855 22.0446C26.9747 22.0004 26.8563 21.9783 26.7369 21.9796C26.3723 21.9796 26.193 22.215 26.193 22.6339V24.0596H25.6359V21.5203H26.1857V21.8294ZM11.9742 21.7225C11.6581 21.5366 11.2945 21.4453 10.9271 21.4596C10.2796 21.4596 9.864 21.7687 9.864 22.2743C9.864 22.6888 10.1746 22.9445 10.739 23.0239L11 23.0615C11.3048 23.1034 11.4492 23.1843 11.4492 23.3273C11.4492 23.5237 11.2465 23.6349 10.8659 23.6349C10.5604 23.6434 10.2609 23.5498 10.0157 23.3692L9.75462 23.8025C10.0782 24.0275 10.4663 24.1434 10.8615 24.1333C11.598 24.1333 12.0282 23.7866 12.0282 23.3027C12.0282 22.8564 11.6927 22.6224 11.1357 22.5429L10.8732 22.5054C10.6325 22.4736 10.4357 22.4259 10.4357 22.2555C10.4357 22.085 10.618 21.9579 10.9213 21.9579C11.2012 21.9621 11.4753 22.0372 11.7175 22.176L11.9742 21.7225ZM18.4652 21.8294C18.6038 21.5921 18.8624 21.4491 19.139 21.4567L19.1346 21.4596C19.271 21.4578 19.4067 21.4793 19.5357 21.5232L19.3636 22.0446C19.2534 22.0002 19.1354 21.9781 19.0165 21.9796C18.6534 21.9796 18.4711 22.215 18.4711 22.6339V24.0596H17.9155V21.5203H18.4652V21.8294ZM14.3994 21.5217H13.4909V20.7504H12.9309V21.5217H12.4132V22.0273H12.9309V23.1828C12.9309 23.7722 13.1613 24.1246 13.8175 24.1246C14.0631 24.1256 14.3038 24.0575 14.5117 23.9282L14.3513 23.4544C14.2025 23.5431 14.0334 23.5929 13.8598 23.5988C13.5827 23.5988 13.4909 23.4284 13.4909 23.1727V22.0258H14.3994V21.5217ZM6.09712 22.4736V24.0625L5.52983 24.0596V22.6455C5.52983 22.215 5.34754 21.9753 4.96983 21.9753C4.79131 21.9673 4.61841 22.0381 4.49766 22.1686C4.37691 22.2991 4.32072 22.4758 4.34421 22.6513V24.0596H3.78275V22.6455C3.78275 22.215 3.59608 21.9753 3.22712 21.9753C3.04814 21.9657 2.87424 22.0361 2.75313 22.1669C2.63201 22.2978 2.57638 22.4755 2.6015 22.6513V24.0596H2.04004V21.5246H2.59712V21.838C2.76069 21.5897 3.04477 21.4457 3.34379 21.4596C3.69042 21.4435 4.01763 21.6186 4.194 21.9146C4.38785 21.613 4.73207 21.4397 5.09233 21.4625C5.36609 21.4473 5.63322 21.5494 5.82556 21.743C6.0179 21.9365 6.11684 22.2027 6.09712 22.4736Z" fill="#231F20"/>
<path fill-rule="evenodd" clip-rule="evenodd" d="M31.4332 15.3813V15.9721H31.353V15.5258L31.2276 15.91H31.143L31.0176 15.5258V15.9721H30.9359V15.3813H31.0526L31.1853 15.7872L31.318 15.3813H31.4332ZM30.704 15.4825V15.9721H30.6195V15.4825H30.4736V15.3828H30.8499V15.4825H30.704Z" fill="#F69310"/>
<path fill-rule="evenodd" clip-rule="evenodd" d="M20.2237 17.2086H11.8076V2.15894H20.2237V17.2086Z" fill="#FF5F00"/>
<path fill-rule="evenodd" clip-rule="evenodd" d="M12.3477 9.68444C12.3427 6.75151 13.6961 3.97835 16.0198 2.16033C12.0581 -0.924529 6.36811 -0.475917 2.94906 3.19085C-0.469998 6.85762 -0.469998 12.5113 2.94906 16.178C6.36811 19.8448 12.0581 20.2934 16.0198 17.2086C13.6964 15.391 12.343 12.6184 12.3477 9.68589" fill="#EA001B"/>
<path fill-rule="evenodd" clip-rule="evenodd" d="M31.5746 9.68449C31.5808 12.217 30.5709 14.6481 28.7672 16.4431C26.9635 18.238 24.5137 19.2496 21.9569 19.2554C19.7988 19.2585 17.7034 18.537 16.0127 17.2086C18.3338 15.3883 19.6874 12.6169 19.6874 9.68449C19.6874 6.7521 18.3338 3.98063 16.0127 2.16038C18.9108 -0.105147 22.8631 -0.525681 26.1809 1.07846C29.4987 2.68261 31.5952 6.02772 31.5746 9.68449Z" fill="#F69D1B"/>
</svg>
