<svg width="177" height="110" viewBox="0 0 177 110" fill="none" xmlns="http://www.w3.org/2000/svg">
<path d="M162.737 127.766C172.564 143.621 172.297 165.487 166.309 182.985C147.899 236.779 87.2863 222.683 48.201 236.898C38.4122 240.459 30.3047 246.614 21.3417 252.047C5.38213 261.722 -10.7738 262.824 -28.3743 262.998C-47.7178 263.191 -66.3001 249.816 -76.2584 231.572C-81.8885 221.254 -84.9174 209.177 -85.0438 197.072C-85.1595 186.145 -82.9026 175.466 -82.2247 164.609C-81.5442 153.676 -84.3875 143.594 -87.1447 133.273C-92.3444 113.792 -93.7055 90.0022 -89.5684 70.0326C-85.7863 51.7762 -76.1938 35.7559 -63.863 22.9507C-53.2403 11.9197 -40.003 3.79794 -25.7327 1.26505C-12.5089 -1.08431 -2.53176 -0.729462 7.82192 -11.6778C13.9873 -18.1967 18.1245 -25.8107 25.46 -30.9866C36.0666 -38.4752 51.7975 -43.0546 64.2736 -42.9995C79.6145 -42.9292 94.9204 -37.0466 109.594 -32.4886C120.497 -29.1022 131.313 -25.3304 142.202 -22.0327C153.459 -18.6219 165.589 -11.3536 171.628 0.347321C177.849 12.4031 178.49 27.4414 174.465 40.5066C174.25 41.2102 174.019 41.9077 173.779 42.599C167.778 59.8276 155.552 73.6668 151.582 91.9018C148.537 105.882 153.645 114.857 161.126 125.337C161.699 126.142 162.237 126.949 162.743 127.763L162.737 127.766Z" fill="white"/>
</svg>
