<svg width="76" height="64" viewBox="0 0 76 64" fill="none" xmlns="http://www.w3.org/2000/svg">
<g clip-path="url(#clip0_3595_12727)">
<path d="M72.6723 28.5769L72.9529 28.8269L72.9672 28.8402C74.2684 30.059 75.0554 31.734 75.1818 33.5573C75.3121 35.4253 74.7358 37.2345 73.561 38.6496L61.466 53.2151L60.9763 53.4825C60.8738 53.538 50.5172 59.1651 44.6326 62.0739C42.7042 63.0278 41.0231 63.4716 39.3427 63.4716C38.9842 63.4716 38.6177 63.4509 38.2537 63.4095C36.2696 63.1859 34.4541 62.3645 32.6139 61.4703C29.6721 60.0403 22.8925 56.8939 20.7916 55.921L3.46144 57.6896C3.37321 57.6979 3.28895 57.7012 3.20628 57.7012C1.72223 57.7012 0.459153 56.494 0.331176 54.953C0.2652 54.1532 0.501282 53.374 0.997292 52.7588C1.4933 52.1436 0.631643 51.7669 1.3995 51.6981L21.7621 49.7921L22.4457 50.1084C22.5181 50.1415 31.6243 54.3527 35.0566 56.0212C36.71 56.8252 37.8642 57.312 38.8697 57.4255C39.0184 57.442 39.1686 57.4503 39.3156 57.4503C40.128 57.4503 41.0318 57.1911 42.159 56.6331C47.2923 54.0952 55.587 49.6215 57.8103 48.4167L69.1907 34.7116L70.7948 33.0224L72.6707 28.5752L72.6723 28.5769Z" fill="#B8A198" fill-opacity="0.5"/>
<path d="M47.5619 39.4313C47.4498 39.3891 47.3465 39.332 47.2535 39.2632C45.3219 38.504 43.4237 37.7645 41.5716 37.0607C39.2648 36.1847 36.9199 35.3236 34.4621 34.479C21.0937 29.8803 18.2369 30.7497 7.24121 34.0981C5.86923 34.5163 4.39392 34.965 3.84465 35.129C3.1531 35.3335 2.43373 34.9162 2.2366 34.1967C2.04026 33.4763 2.44088 32.7269 3.13164 32.5216C5.00837 31.961 5.78497 31.7242 6.51786 31.5015C18.1343 27.9642 21.1525 27.0452 35.2745 31.9031C37.6274 32.712 40.02 33.5922 42.4547 34.5171C44.5946 35.3302 46.6819 36.1466 48.7892 36.9746L56.0242 28.4047C56.2508 28.1365 56.4765 27.8549 56.7182 27.6032C57.6299 26.6535 58.8366 26.0913 60.0527 25.987C61.2562 25.8835 62.4787 26.2188 63.4628 27.0543C63.8213 27.3598 64.2036 27.7606 64.4818 28.1464L64.5439 28.0719C64.5677 28.0437 64.5923 28.0164 64.6178 27.9907C65.539 26.9284 66.7862 26.338 68.066 26.2412C69.3768 26.1418 70.7265 26.5641 71.7996 27.5304L71.8711 27.5941C72.8981 28.5563 73.4704 29.8604 73.5634 31.1993C73.6588 32.5647 73.2534 33.9714 72.3258 35.0884L60.4279 49.4163L60.2046 49.538C60.1743 49.5545 49.8011 55.1916 43.9173 58.1004C41.7862 59.1536 40.0939 59.4774 38.3913 59.2861C36.7482 59.1007 35.1966 58.4374 33.2523 57.4918C30.1117 55.965 22.6326 52.4989 21.0269 51.7554L1.72707 53.5621C1.01326 53.6267 0.384508 53.0761 0.323301 52.3325C0.2613 51.589 0.7899 50.934 1.50371 50.8703L21.4609 49.0014L21.7678 49.143C21.794 49.1554 30.9519 53.3907 34.3516 55.0426C36.0551 55.8706 37.3897 56.4494 38.6663 56.5926C39.8841 56.7301 41.1487 56.4709 42.8084 55.6503C48.2375 52.9659 57.2627 48.0848 58.7817 47.261L70.3608 33.3165C70.8163 32.7675 71.015 32.0695 70.9673 31.3881C70.9204 30.7091 70.6271 30.0492 70.1001 29.5747L70.0794 29.5565C69.5556 29.0945 68.8943 28.8941 68.248 28.9429C67.6201 28.9901 67.0088 29.2758 66.5573 29.7875C66.5414 29.809 66.5247 29.8306 66.5072 29.8513L65.8467 30.6412C62.0415 35.2234 58.2094 39.7766 54.3741 44.3629L51.1532 44.6975C50.6293 45.653 49.8504 46.3576 48.9354 46.7998C47.7638 47.367 46.368 47.4903 45.0182 47.1426L31.3501 43.6252C30.653 43.4463 30.227 42.7135 30.3987 41.9874C30.5704 41.2612 31.2738 40.8174 31.971 40.9963L45.639 44.5136C46.4172 44.714 47.2042 44.6511 47.8472 44.3406C48.3989 44.074 48.8448 43.6111 49.0714 42.9661L49.073 42.9628C49.3186 42.2615 49.2645 41.4964 48.98 40.8398C48.7025 40.2014 48.2073 39.6756 47.5587 39.4288L47.5619 39.4313ZM50.7843 38.7192C51.0077 39.0339 51.1985 39.3734 51.3535 39.7294C51.6492 40.4092 51.8145 41.1528 51.8304 41.9104L53.0855 41.7804L62.6989 30.2827C62.6639 30.1999 62.625 30.1195 62.5821 30.0417C62.4461 29.795 62.2657 29.5648 62.0431 29.3644L61.7443 29.0953C61.3222 28.7724 60.796 28.6457 60.2689 28.6912C59.6434 28.7451 59.0249 29.0307 58.5623 29.5126C58.5059 29.5747 58.4582 29.6318 58.4057 29.6939L50.7843 38.7209V38.7192Z" fill="#3E0719"/>
<path d="M49.0506 0.5C49.6428 0.5 50.223 0.566241 50.785 0.69127C52.7683 1.1326 54.4407 2.31003 55.6155 3.88986C56.7816 5.45894 57.4581 7.42711 57.4581 9.46484C57.4581 10.0718 57.3961 10.6911 57.2689 11.3138C56.1656 16.6925 49.9408 21.7997 45.6453 25.3237C44.8083 26.0101 44.042 26.6394 43.5587 27.0575C43.0659 27.4848 42.3584 27.4666 41.8878 27.0468C41.4045 26.6286 40.643 26.0043 39.8132 25.3228C35.5184 21.7997 29.2936 16.6934 28.1911 11.3146C28.0632 10.6911 28.002 10.0718 28.002 9.46567C28.002 7.42794 28.6784 5.45977 29.8437 3.89069C31.0185 2.31003 32.691 1.13343 34.6742 0.69127C35.2362 0.566241 35.8157 0.5 36.4087 0.5C38.0199 0.5 39.5278 0.978589 40.8084 1.8066C41.5293 2.27276 42.178 2.85154 42.7304 3.51892C43.2829 2.8532 43.9307 2.27608 44.6525 1.80908L44.6509 1.8066C45.9314 0.978589 47.4393 0.5 49.0506 0.5V0.5Z" fill="#B8A198" fill-opacity="0.5"/>
</g>
<defs>
<clipPath id="clip0_3595_12727">
<rect width="74.88" height="62.9725" fill="white" transform="translate(0.320312 0.5)"/>
</clipPath>
</defs>
</svg>
