<svg width="84" height="52" viewBox="0 0 84 52" fill="none" xmlns="http://www.w3.org/2000/svg">
<g clip-path="url(#clip0_2559_4414)">
<path d="M78.1108 22.5024L75.9397 14.0304C76.2359 13.9714 76.5018 13.8137 76.6924 13.5843C76.883 13.3549 76.9864 13.068 76.9849 12.7724V11.4161C76.9849 9.9825 76.4025 8.60751 75.3659 7.59381C74.3293 6.58007 72.9233 6.01056 71.4573 6.01056H61.5477V3.18001C61.5503 2.83246 61.4827 2.48783 61.3485 2.16599C61.2143 1.84414 61.0164 1.55145 60.766 1.30478C60.5156 1.05811 60.2178 0.862331 59.8897 0.72873C59.5615 0.595133 59.2097 0.526357 58.8543 0.526367H8.32163C7.60192 0.526367 6.91172 0.805945 6.40283 1.3036C5.89393 1.80126 5.60803 2.47622 5.60803 3.18001V26.4338C5.61323 26.7762 5.75466 27.1033 6.00234 27.3455C6.25002 27.5877 6.58444 27.726 6.93467 27.7311C7.10795 27.7312 7.27951 27.6974 7.43935 27.632C7.59919 27.5666 7.74411 27.4707 7.86571 27.35C7.98732 27.2292 8.08311 27.0861 8.14762 26.9288C8.21204 26.7715 8.24387 26.6032 8.24117 26.4338V3.18001V3.08173H58.8543V3.18001V26.4338C58.8543 26.7778 58.9941 27.1078 59.2428 27.3511C59.4917 27.5944 59.829 27.7311 60.1809 27.7311C60.3542 27.7312 60.5258 27.6974 60.6856 27.632C60.8454 27.5666 60.9903 27.4707 61.1119 27.35C61.2335 27.2292 61.3293 27.0861 61.3938 26.9288C61.4583 26.7715 61.4901 26.6032 61.4875 26.4338V24.9791H77.0252C77.9243 24.9952 78.7959 25.2863 79.5164 25.8117C80.2377 26.337 80.7726 27.0702 81.0454 27.908H77.0252C76.6786 27.908 76.3463 28.0426 76.1013 28.2822C75.8562 28.5219 75.7186 28.8468 75.7186 29.1857V31.9376C75.7183 32.9895 76.1386 33.9999 76.8897 34.7528C77.6407 35.5057 78.6633 35.9416 79.7383 35.9672H81.2265V41.6087H77.9297C77.3663 40.0059 76.3048 38.6152 74.8941 37.6307C73.4833 36.6463 71.7934 36.1171 70.0603 36.1171C68.3271 36.1171 66.6373 36.6463 65.2265 37.6307C63.8157 38.6152 62.7546 40.0059 62.191 41.6087H61.5477V31.9966C61.5504 31.8272 61.5186 31.6589 61.4541 31.5016C61.3897 31.3443 61.2938 31.2011 61.1723 31.0804C61.0507 30.9597 60.9057 30.8638 60.7459 30.7983C60.586 30.7329 60.4145 30.6992 60.2412 30.6992C59.8894 30.6992 59.5519 30.8359 59.3032 31.0792C59.0543 31.3225 58.9146 31.6525 58.9146 31.9966V41.6676H31.6382C31.0746 40.0649 30.0134 38.6742 28.6026 37.6898C27.1919 36.7052 25.5019 36.176 23.7688 36.176C22.0357 36.176 20.3458 36.7052 18.9351 37.6898C17.5243 38.6742 16.4631 40.0649 15.8995 41.6676H8.32163V38.7585H14.0302C14.3766 38.7585 14.709 38.6239 14.954 38.3842C15.199 38.1446 15.3367 37.8196 15.3367 37.4808C15.3367 37.1401 15.1997 36.8131 14.9552 36.5703C14.7108 36.3276 14.3785 36.1886 14.0302 36.1834H1.32663C0.974785 36.1834 0.637354 36.3201 0.388562 36.5634C0.139771 36.8067 9.15221e-09 37.1367 9.15221e-09 37.4808C-2.04987e-05 37.6502 0.034424 37.818 0.101337 37.9743C0.16825 38.1306 0.266291 38.2723 0.389751 38.3912C0.513211 38.5102 0.659627 38.6038 0.820472 38.6669C0.981313 38.7299 1.15337 38.761 1.32663 38.7585H5.60803V41.589C5.60803 42.2928 5.89393 42.9678 6.40283 43.4654C6.91172 43.9631 7.60192 44.2427 8.32163 44.2427H15.4372C15.5423 46.3343 16.4659 48.3064 18.0169 49.7504C19.5679 51.1944 21.6274 51.9998 23.7688 51.9998C25.9103 51.9998 27.9698 51.1944 29.5208 49.7504C31.0718 48.3064 31.9954 46.3343 32.1005 44.2427H61.7287C61.8337 46.3343 62.7574 48.3064 64.3084 49.7504C65.8593 51.1944 67.9188 51.9998 70.0603 51.9998C72.2018 51.9998 74.2612 51.1944 75.8122 49.7504C77.3632 48.3064 78.2872 46.3343 78.392 44.2427H82.6938C83.0398 44.2427 83.3719 44.1081 83.617 43.8684C83.8621 43.6288 84 43.3038 84 42.965V29.2053C84 27.5841 83.4058 26.0166 82.3254 24.7869C81.245 23.5573 79.7491 22.7468 78.1108 22.5024ZM61.5477 8.54624H71.4573C71.8381 8.54368 72.2157 8.61505 72.5681 8.75643C72.9205 8.89773 73.2406 9.10611 73.5099 9.3695C73.7793 9.63282 73.9924 9.94595 74.1369 10.2905C74.2814 10.6351 74.3544 11.0043 74.3518 11.3768H61.5477V8.54624ZM61.5477 22.4238V14.0698H73.2462L75.397 22.5024L61.5477 22.4238ZM23.7588 49.9431C22.6289 49.9431 21.5244 49.6152 20.5852 49.0009C19.6461 48.3866 18.9143 47.5135 18.4829 46.4923C18.0514 45.4711 17.9395 44.3476 18.1615 43.2642C18.3834 42.1808 18.9291 41.1861 19.7294 40.4062C20.5298 39.6263 21.5489 39.0962 22.6575 38.883C23.7661 38.6698 24.9146 38.7832 25.9573 39.2087C27.0001 39.6343 27.8902 40.3528 28.5151 41.2735C29.1399 42.1941 29.4713 43.2753 29.4674 44.3803C29.4567 45.8522 28.8499 47.26 27.78 48.2953C26.71 49.3306 25.264 49.909 23.7588 49.9037V49.9431ZM69.99 49.9431C68.86 49.9431 67.7556 49.6152 66.8164 49.0009C65.8772 48.3866 65.1455 47.5135 64.7141 46.4923C64.2826 45.4711 64.1707 44.3476 64.3926 43.2642C64.6145 42.1808 65.1602 41.1861 65.9606 40.4062C66.7609 39.6263 67.78 39.0962 68.8886 38.883C69.9973 38.6698 71.1458 38.7832 72.1884 39.2087C73.2312 39.6343 74.1214 40.3528 74.7462 41.2735C75.371 42.1941 75.7025 43.2753 75.6985 44.3803C75.6879 45.842 75.0895 47.241 74.0325 48.2745C72.9756 49.3082 71.545 49.8935 70.0502 49.9037L69.99 49.9431ZM81.3066 33.4905H79.8193C79.6235 33.4905 79.4301 33.4529 79.2498 33.3798C79.0694 33.3067 78.9053 33.1995 78.7673 33.0645C78.6294 32.9293 78.52 32.7691 78.4452 32.5926C78.3705 32.4161 78.3319 32.2269 78.3319 32.0359V30.5616H81.3667V33.4905H81.3066Z" fill="#3E0719"/>
<path d="M27.9402 17.2347L26.292 14.07V20.2619H24.1211V9.74561H26.3925L28.704 14.5221L31.0156 9.74561H33.3271V20.2619H31.1362V14.011L29.508 17.2347H27.9402Z" fill="#3E0719"/>
<path d="M39.7575 20.2619H37.4258V16.6058L34.9937 12.6744C34.8226 12.4034 34.7385 12.0884 34.7525 11.7702V9.74561H37.0841V11.5737C37.0672 11.8048 37.1159 12.0361 37.2248 12.242L38.7524 14.6401L40.1193 12.4975C40.2315 12.2922 40.2869 12.0619 40.2801 11.8291V9.86355H42.5112V11.9864C42.5151 12.3036 42.4318 12.6159 42.27 12.8906L39.7575 16.6058V20.3208V20.2619Z" fill="#3E0719"/>
<path d="M27.9402 29.1466L26.292 25.9819V32.1738H24.1211V21.6771H26.3925L28.704 26.434L31.0156 21.6575H33.3271V32.1541H31.1362V25.923L29.508 29.1466H27.9402Z" fill="#3E0719"/>
<path d="M39.9983 28.5566H42.3099V30.0309C42.3668 30.3365 42.3489 30.651 42.2576 30.9485C42.1662 31.246 42.0041 31.5182 41.7844 31.7426C41.5647 31.967 41.2938 32.1373 40.9938 32.2395C40.6938 32.3417 40.3733 32.373 40.0586 32.3306H37.1038C36.7988 32.3692 36.4888 32.3388 36.1977 32.2419C35.9066 32.1449 35.6421 31.9838 35.4247 31.7711C35.2073 31.5585 35.0426 31.2999 34.9434 31.0152C34.8442 30.7305 34.8131 30.4274 34.8525 30.1292V23.8194C34.8131 23.5211 34.8442 23.218 34.9434 22.9333C35.0426 22.6486 35.2073 22.39 35.4247 22.1773C35.6421 21.9646 35.9066 21.8036 36.1977 21.7067C36.4888 21.6096 36.7988 21.5792 37.1038 21.6178H40.0586C40.3636 21.5792 40.6736 21.6096 40.9647 21.7067C41.2558 21.8036 41.5203 21.9646 41.7377 22.1773C41.9552 22.39 42.1198 22.6486 42.219 22.9333C42.3182 23.218 42.3493 23.5211 42.3099 23.8194V24.9791H39.9983V23.957C40.0048 23.9064 39.9994 23.855 39.9825 23.8068C39.9657 23.7585 39.9378 23.7148 39.9009 23.6787C39.864 23.6426 39.8192 23.6154 39.7699 23.5989C39.7206 23.5824 39.6681 23.5771 39.6164 23.5835H37.6063C37.5546 23.5771 37.5021 23.5824 37.4528 23.5989C37.4034 23.6154 37.3587 23.6426 37.3218 23.6787C37.2849 23.7148 37.257 23.7585 37.2401 23.8068C37.2233 23.855 37.2179 23.9064 37.2244 23.957V29.8539C37.2179 29.9045 37.2233 29.9559 37.2401 30.0041C37.257 30.0524 37.2849 30.0961 37.3218 30.1322C37.3587 30.1682 37.4034 30.1955 37.4528 30.2121C37.5021 30.2286 37.5546 30.2338 37.6063 30.2274H39.6164C39.6681 30.2338 39.7206 30.2286 39.7699 30.2121C39.8192 30.1955 39.864 30.1682 39.9009 30.1322C39.9378 30.0961 39.9657 30.0524 39.9825 30.0041C39.9994 29.9559 40.0048 29.9045 39.9983 29.8539V28.5173V28.5566Z" fill="#3E0719"/>
<path d="M43.2922 32.2007C43.3545 32.1771 43.411 32.141 43.4583 32.0948C43.5056 32.0486 43.5424 31.9932 43.5667 31.9323C43.5909 31.8714 43.6019 31.8062 43.599 31.7409C43.603 31.6785 43.5924 31.6159 43.5681 31.558C43.5437 31.5001 43.5061 31.4484 43.4583 31.4068C43.412 31.358 43.3561 31.3188 43.2939 31.2919C43.2317 31.2648 43.1646 31.2504 43.0965 31.2495C42.9661 31.2565 42.8435 31.3129 42.7548 31.4068C42.707 31.4484 42.6694 31.5001 42.6451 31.558C42.6207 31.6159 42.6101 31.6785 42.6141 31.7409C42.6112 31.8062 42.6222 31.8714 42.6465 31.9323C42.6707 31.9932 42.7076 32.0486 42.7548 32.0948C42.799 32.1395 42.8522 32.1747 42.911 32.1984C42.9698 32.2221 43.033 32.2337 43.0965 32.2324C43.1633 32.2352 43.2299 32.2244 43.2922 32.2007Z" fill="#3E0719"/>
</g>
<defs>
<clipPath id="clip0_2559_4414">
<rect width="84" height="52" fill="white"/>
</clipPath>
</defs>
</svg>
