<svg width="25" height="20" viewBox="0 0 25 20" fill="none" xmlns="http://www.w3.org/2000/svg">
<path d="M22.3651 4.85786C22.3803 5.07105 22.3803 5.28429 22.3803 5.49747C22.3803 12 17.4311 19.4924 8.38536 19.4924C5.59853 19.4924 3.00971 18.6853 0.832031 17.2843C1.22799 17.33 1.60866 17.3452 2.01985 17.3452C4.31931 17.3452 6.4361 16.5686 8.12647 15.2437C5.96402 15.198 4.15183 13.7818 3.52745 11.8325C3.83204 11.8782 4.13659 11.9086 4.45642 11.9086C4.89803 11.9086 5.33969 11.8477 5.75083 11.7412C3.49703 11.2843 1.80661 9.30458 1.80661 6.91371V6.85282C2.46141 7.21831 3.2229 7.44673 4.02995 7.47715C2.70507 6.59388 1.83708 5.08629 1.83708 3.38069C1.83708 2.46699 2.08069 1.62943 2.50712 0.898457C4.92845 3.88323 8.56808 5.83244 12.6493 6.04568C12.5731 5.68019 12.5274 5.29952 12.5274 4.9188C12.5274 2.2081 14.7204 0 17.4462 0C18.8625 0 20.1417 0.593909 21.0402 1.5533C22.1518 1.34011 23.2178 0.928926 24.162 0.365486C23.7965 1.50765 23.0198 2.46704 21.9996 3.07614C22.9894 2.96959 23.9488 2.69542 24.832 2.31474C24.1621 3.28933 23.3245 4.15731 22.3651 4.85786Z" fill="black"/>
</svg>
