<svg width="16" height="15" viewBox="0 0 16 15" fill="none" xmlns="http://www.w3.org/2000/svg">
<path d="M3.1998 14.75V13.25H10.0498C11.1665 13.25 12.1371 12.896 12.9618 12.188C13.7871 11.4793 14.1998 10.5833 14.1998 9.50001C14.1998 8.41667 13.7871 7.52067 12.9618 6.81201C12.1371 6.10401 11.1665 5.75001 10.0498 5.75001H3.1498L5.9998 8.60001L4.9498 9.65001L0.299805 5.00001L4.9498 0.350006L5.9998 1.40001L3.1498 4.25001H10.0498C11.5831 4.25001 12.9081 4.75001 14.0248 5.75001C15.1415 6.75001 15.6998 8.00001 15.6998 9.50001C15.6998 11 15.1415 12.25 14.0248 13.25C12.9081 14.25 11.5831 14.75 10.0498 14.75H3.1998Z" fill="white"/>
</svg>
