<svg width="25" height="24" viewBox="0 0 25 24" fill="none" xmlns="http://www.w3.org/2000/svg">
<path d="M20.9054 3.4875C18.6607 1.2375 15.6714 0 12.4946 0C5.9375 0 0.601786 5.33571 0.601786 11.8929C0.601786 13.9875 1.14821 16.0339 2.1875 17.8393L0.5 24L6.80536 22.3446C8.54107 23.2929 10.4964 23.7911 12.4893 23.7911H12.4946C19.0464 23.7911 24.5 18.4554 24.5 11.8982C24.5 8.72143 23.15 5.7375 20.9054 3.4875ZM12.4946 21.7875C10.7161 21.7875 8.975 21.3107 7.45893 20.4107L7.1 20.1964L3.36071 21.1768L4.35714 17.5286L4.12143 17.1536C3.13036 15.5786 2.61071 13.7625 2.61071 11.8929C2.61071 6.44464 7.04643 2.00893 12.5 2.00893C15.1411 2.00893 17.6214 3.0375 19.4857 4.90714C21.35 6.77679 22.4964 9.25714 22.4911 11.8982C22.4911 17.3518 17.9429 21.7875 12.4946 21.7875ZM17.9161 14.3839C17.6214 14.2339 16.1589 13.5161 15.8857 13.4196C15.6125 13.3179 15.4143 13.2696 15.2161 13.5696C15.0179 13.8696 14.45 14.5339 14.2732 14.7375C14.1018 14.9357 13.925 14.9625 13.6304 14.8125C11.8839 13.9393 10.7375 13.2536 9.58571 11.2768C9.28036 10.7518 9.89107 10.7893 10.4589 9.65357C10.5554 9.45536 10.5071 9.28393 10.4321 9.13393C10.3571 8.98393 9.7625 7.52143 9.51607 6.92679C9.275 6.34821 9.02857 6.42857 8.84643 6.41786C8.675 6.40714 8.47679 6.40714 8.27857 6.40714C8.08036 6.40714 7.75893 6.48214 7.48571 6.77679C7.2125 7.07679 6.44643 7.79464 6.44643 9.25714C6.44643 10.7196 7.5125 12.1339 7.65714 12.3321C7.80714 12.5304 9.75179 15.5304 12.7357 16.8214C14.6214 17.6357 15.3607 17.7054 16.3036 17.5661C16.8768 17.4804 18.0607 16.8482 18.3071 16.1518C18.5536 15.4554 18.5536 14.8607 18.4786 14.7375C18.4089 14.6036 18.2107 14.5286 17.9161 14.3839Z" fill="black"/>
</svg>
